<?xml version="1.0" encoding="iso-8859-1"?>
<!-- Generator: Adobe Illustrator 16.0.0, SVG Export Plug-In . SVG Version: 6.00 Build 0)  -->
<!DOCTYPE svg PUBLIC "-//W3C//DTD SVG 1.1//EN" "http://www.w3.org/Graphics/SVG/1.1/DTD/svg11.dtd">
<svg version="1.1" id="Capa_1" xmlns="http://www.w3.org/2000/svg" xmlns:xlink="http://www.w3.org/1999/xlink" x="0px" y="0px"
	 width="65.923px" height="65.922px" viewBox="0 0 65.923 65.922" style="enable-background:new 0 0 65.923 65.922;"
	 xml:space="preserve">
<g>
	<g>
		<g>
			<path d="M57.631,65.461H8.18c-3.432,0-6.041-1.285-7.347-3.546c-1.293-2.239-1.075-5.103,0.613-8.028
				c0.03-0.053,0.385-0.113,0.42-0.162l20.919-29.247V2.381c0-1.104,0.252-1.92,1.356-1.92h18c1.104,0,2.644,0.815,2.644,1.92
				v22.747L64.587,53.7c0.035,0.049-0.095,0.1-0.062,0.15c1.688,2.928,1.827,5.815,0.53,8.061
				C63.749,64.174,61.061,65.461,57.631,65.461z M4.869,55.94c-0.895,1.584-1.103,3.054-0.571,3.975
				c0.554,0.958,1.969,1.547,3.884,1.547h49.45c1.911,0,3.326-0.591,3.88-1.551c0.535-0.926,0.327-2.381-0.568-3.965L40.83,26.923
				c-0.238-0.337-0.044-0.749-0.044-1.161V4.461h-14v20.65c0,0.412-0.45,0.814-0.687,1.152L4.869,55.94z"/>
		</g>
		<g>
			<path d="M45.58,43.161c-2.749,0-6.265-0.916-11.116-3.815c-8.226-4.913-20.454,1.834-20.577,1.902
				c-0.484,0.272-1.092,0.099-1.36-0.384c-0.271-0.481-0.1-1.092,0.383-1.36c0.542-0.306,13.373-7.377,22.581-1.875
				c8.582,5.128,12.281,3.536,15.548,2.131l0.722-0.308c0.51-0.21,1.097,0.029,1.309,0.54c0.212,0.51-0.03,1.095-0.54,1.308
				l-0.699,0.297C50.111,42.334,48.191,43.161,45.58,43.161z"/>
		</g>
		<g>
			<path d="M18.988,58.872c-3.018,0-5.471-2.454-5.471-5.471c0-3.018,2.453-5.472,5.471-5.472c3.017,0,5.471,2.454,5.471,5.472
				C24.459,56.417,22.004,58.872,18.988,58.872z M18.988,49.93c-1.914,0-3.471,1.557-3.471,3.471s1.557,3.472,3.471,3.472
				s3.471-1.558,3.471-3.472S20.902,49.93,18.988,49.93z"/>
		</g>
		<g>
			<path d="M47.738,58.872c-2.604,0-4.721-2.118-4.721-4.721c0-2.604,2.117-4.722,4.721-4.722c2.603,0,4.721,2.118,4.721,4.722
				C52.459,56.753,50.341,58.872,47.738,58.872z M47.738,51.43c-1.5,0-2.721,1.221-2.721,2.721s1.221,2.722,2.721,2.722
				s2.721-1.222,2.721-2.722S49.238,51.43,47.738,51.43z"/>
		</g>
		<g>
			<path d="M32.039,50.472c-2.218,0-4.021-1.804-4.021-4.021c0-2.219,1.804-4.021,4.021-4.021s4.021,1.805,4.021,4.021
				S34.256,50.472,32.039,50.472z M32.039,44.43c-1.114,0-2.021,0.907-2.021,2.021c0,1.113,0.906,2.021,2.021,2.021
				s2.021-0.905,2.021-2.021S33.153,44.43,32.039,44.43z"/>
		</g>
		<g>
			<path d="M37.786,19.381c-0.553,0-1-0.447-1-1v-11c0-0.553,0.447-1,1-1s1,0.447,1,1v11C38.786,18.935,38.339,19.381,37.786,19.381
				z"/>
		</g>
		<g>
			<path d="M37.786,24.381c-0.553,0-1-0.447-1-1v-1c0-0.553,0.447-1,1-1s1,0.447,1,1v1C38.786,23.935,38.339,24.381,37.786,24.381z"
				/>
		</g>
	</g>
</g>
<g>
</g>
<g>
</g>
<g>
</g>
<g>
</g>
<g>
</g>
<g>
</g>
<g>
</g>
<g>
</g>
<g>
</g>
<g>
</g>
<g>
</g>
<g>
</g>
<g>
</g>
<g>
</g>
<g>
</g>
</svg>
