<svg id="Layer_1" data-name="Layer 1" xmlns="http://www.w3.org/2000/svg" viewBox="0 0 133.97 37.27"><defs><style>.cls-1{fill:#012743;opacity:0.05;}</style></defs><title>404</title><polygon class="cls-1" points="37.58 5.99 26.45 5.99 26.35 17.22 16.41 17.22 23.11 0 11.05 0 0 26.55 26.35 26.55 26.35 36.86 37.58 36.86 37.58 26.55 42.86 26.55 42.86 17.02 37.58 17.02 37.58 5.99"/><path class="cls-1" d="M73.62,0V20.35A8.51,8.51,0,0,1,72,25.71a5.77,5.77,0,0,1-4.87,2.13,6.4,6.4,0,0,1-2.85-.59,6,6,0,0,1-2-1.59A6.71,6.71,0,0,1,61,23.3a10.12,10.12,0,0,1-.41-2.95V0H49.05c0,.39,0,.77,0,1.17V17.84q0,9.44,4.67,14.43t13.43,5q8.77,0,13.41-4.92t4.64-14.51V1.17c0-.4,0-.78,0-1.17Z"/><polygon class="cls-1" points="128.69 5.99 117.56 5.99 117.46 17.22 107.51 17.22 114.22 0 102.16 0 91.11 26.55 117.46 26.55 117.46 36.86 128.69 36.86 128.69 26.55 133.97 26.55 133.97 17.02 128.69 17.02 128.69 5.99"/></svg>