<svg xmlns="http://www.w3.org/2000/svg" viewBox="0 0 120.54 88.42"><defs><style>.cls-1{fill:#aeaeae;}</style></defs><title>clouds</title><g id="Слой_2" data-name="Слой 2"><g id="Layer_1" data-name="Layer 1"><path class="cls-1" d="M103.79,51.69C101.62,35.71,91.13,24,74.55,24,60.66,24,53,32.21,48.23,44.9a22.9,22.9,0,0,0-5.31-.62C30.52,44.28,20.44,54.84,20.44,67c0,11.59,9.71,20.77,21.64,21.47H101.6a19.12,19.12,0,0,0,18.94-18.79c0-9.35-7.31-17-16.75-18ZM101.6,83.06H42.08c-8.61-.5-16.24-7.67-16.24-16.1,0-8.81,8.06-16.68,17.08-16.68a16.78,16.78,0,0,1,6.16,1.18l3.26,1.3.87-3.32c3.06-11.6,9.08-20,21.32-20,14.39,0,22.71,11.35,23.36,25.4l.14,3,3.73-.26c7,0,13.35,5.26,13.35,12.06s-6.56,13.42-13.52,13.42ZM43.49,20a23.94,23.94,0,0,1,12.77,3.73,23.76,23.76,0,0,1,5.24-2.94,29.44,29.44,0,0,0-47.44,23,28.78,28.78,0,0,0,2.56,11.86,24.71,24.71,0,0,1,3.63-6.15,23.36,23.36,0,0,1-.77-5.7A24,24,0,0,1,43.49,20ZM43.71,9a30.26,30.26,0,0,1,4.44.36h.31L43.71,0,39,9.39h.3A31.09,31.09,0,0,1,43.71,9ZM9.47,48.48v-.31a27.15,27.15,0,0,1,0-8.8v-.3L0,43.77ZM15,24.34A29.61,29.61,0,0,1,17.88,21a30.55,30.55,0,0,1,3.39-2.86l.21-.21-10-3.31,3.34,10Zm0,0"/></g></g></svg>