<svg id="Layer_1" data-name="Layer 1" xmlns="http://www.w3.org/2000/svg" viewBox="0 0 18 24"><defs><style>.cls-1{fill:#231f20;}</style></defs><title>upload</title><path class="cls-1" d="M17.61,3.65,14.3.38A1.07,1.07,0,0,0,13.5,0H1.29A1.3,1.3,0,0,0,0,1.31V22.7A1.3,1.3,0,0,0,1.29,24H16.71A1.3,1.3,0,0,0,18,22.7V4.5A1.14,1.14,0,0,0,17.61,3.65ZM16.55,4H14V1.48Zm.16,19H1.29A.3.3,0,0,1,1,22.7V1.31A.3.3,0,0,1,1.29,1H13V4.5a.5.5,0,0,0,.5.5H17V22.7A.3.3,0,0,1,16.71,23Z"/><path class="cls-1" d="M8.86,6.19l-.08,0-.08-.05a.5.5,0,0,0-.17,0h0a.5.5,0,0,0-.17,0l-.08.05-.08,0L4.87,9.3a.5.5,0,0,0,.69.73L8,7.71V19.49a.5.5,0,1,0,1,0V7.71L11.49,10a.5.5,0,1,0,.69-.73Z"/></svg>