<?xml version="1.0" standalone="no"?>
<!DOCTYPE svg PUBLIC "-//W3C//DTD SVG 1.1//EN" "http://www.w3.org/Graphics/SVG/1.1/DTD/svg11.dtd" >
<svg xmlns="http://www.w3.org/2000/svg">
<metadata>Generated by IcoMoon</metadata>
<defs>
<font id="hatama-font" horiz-adv-x="1024">
<font-face units-per-em="1024" ascent="960" descent="-64" />
<missing-glyph horiz-adv-x="1024" />
<glyph unicode="&#x20;" horiz-adv-x="512" d="" />
<glyph unicode="&#xe900;" glyph-name="404" horiz-adv-x="3681" d="M1032.517 795.424h-305.799l-2.748-308.546h-273.103l184.084 473.123h-331.351l-303.601-729.466h723.971v-283.269h308.546v283.269h145.069v261.838h-145.069v303.051zM2022.723 960v-559.12c0.13-2.91 0.204-6.323 0.204-9.754 0-51.688-16.772-99.459-45.171-138.167l0.457 0.653c-29.297-36.035-73.626-58.871-123.289-58.871-3.7 0-7.37 0.127-11.007 0.376l0.492-0.027c-1.322-0.036-2.878-0.056-4.439-0.056-26.802 0-52.204 5.996-74.936 16.721l1.072-0.455c-21.774 10.858-40.082 25.565-54.721 43.397l-0.23 0.288c-15.389 18.233-27.426 39.859-34.817 63.535l-0.351 1.306c-7.157 23.47-11.278 50.447-11.278 78.385 0 0.937 0.005 1.874 0.014 2.809l-0.001-0.143v559.12h-317.064c0-10.715 0-21.156 0-32.146v-458.011q0-259.366 128.309-396.467t368.992-137.376q240.957 0 368.442 135.178t127.485 398.665v458.011c0 10.99 0 21.431 0 32.146zM3535.781 795.424h-305.799l-2.748-308.546h-273.378l184.358 473.123h-331.351l-303.601-729.466h723.971v-283.269h308.546v283.269h145.069v261.838h-145.069v303.051z" />
<glyph unicode="&#xe901;" glyph-name="acces" horiz-adv-x="964" d="M679.78 224.654c-1.176 0.312-2.526 0.491-3.917 0.491-7.665 0-14.061-5.432-15.549-12.656l-0.018-0.103c-34.329-141.938-160.265-245.723-310.44-245.723-176.158 0-318.963 142.804-318.963 318.963 0 127.781 75.14 238.012 183.644 288.919l1.953 0.823c5.438 2.627 9.123 8.099 9.123 14.433 0 8.824-7.154 15.978-15.978 15.978-2.491 0-4.849-0.57-6.951-1.587l0.095 0.042c-121.118-57.007-203.457-178.039-203.457-318.301 0-193.694 157.020-350.715 350.715-350.715 165.041 0 303.456 114.001 340.796 267.553l0.493 2.399c0.337 1.221 0.53 2.623 0.53 4.070 0 7.419-5.089 13.65-11.967 15.391l-0.11 0.024zM948.228 145.274h-114.74l-81.545 216.49c-2.373 5.966-8.099 10.107-14.791 10.107-0.128 0-0.255-0.002-0.382-0.005h-303.789l-85.153 192.677h178.244c8.768 0 15.876 7.108 15.876 15.876s-7.108 15.876-15.876 15.876v0h-192.677l-62.782 147.214c45.929 14.616 78.619 56.891 78.619 106.802 0 61.775-50.078 111.853-111.853 111.853s-111.853-50.078-111.853-111.853c0-61.775 50.078-111.853 111.853-111.853 0.014 0 0.028 0 0.041 0h-0.002l170.306-391.126c2.537-5.56 8.038-9.359 14.43-9.381h303.090l81.545-216.49c2.373-5.966 8.099-10.107 14.791-10.107 0.128 0 0.255 0.002 0.382 0.005h125.545c8.768 0 15.876 7.108 15.876 15.876s-7.108 15.876-15.876 15.876v0zM153.708 845.26c-0.031 0.836-0.049 1.817-0.049 2.803 0 44.239 35.863 80.101 80.101 80.101s80.101-35.863 80.101-80.101c0-42.953-33.807-78.009-76.264-80.011l-0.18-0.007c-44.239 0-80.101 35.863-80.101 80.101v0z" />
<glyph unicode="&#xe902;" glyph-name="angle-arrow-pointing-to-right" horiz-adv-x="597" d="M586.852 472.006l-478.077 477.762c-5.908 6.329-14.299 10.274-23.613 10.274s-17.705-3.945-23.595-10.256l-0.017-0.019-51.318-51.318c-6.329-5.908-10.274-14.299-10.274-23.613s3.945-17.705 10.256-23.595l0.019-0.017 403.303-403.146-403.303-403.303c-6.329-5.908-10.274-14.299-10.274-23.613s3.945-17.705 10.256-23.595l0.019-0.017 51.318-51.318c5.928-6.287 14.313-10.201 23.613-10.201s17.685 3.914 23.598 10.185l0.015 0.016 478.077 478.549c6.55 5.797 10.659 14.225 10.659 23.613s-4.109 17.816-10.626 23.584l-0.033 0.029z" />
<glyph unicode="&#xe903;" glyph-name="arrow" horiz-adv-x="1218" d="M1171.401 496.32h-1004.477l379.729 380.705c7.165 8.44 11.522 19.459 11.522 31.496 0 26.956-21.852 48.808-48.808 48.808-12.28 0-23.501-4.535-32.080-12.022l0.058 0.049-462.704-462.704c-8.917-8.846-14.437-21.106-14.437-34.654s5.52-25.808 14.434-34.651l462.707-462.707c8.869-8.869 21.121-14.354 34.654-14.354 27.066 0 49.008 21.942 49.008 49.008 0 13.533-5.485 25.785-14.354 34.654v0l-379.729 378.753h1004.477c26.956 0 48.808 21.852 48.808 48.808s-21.852 48.808-48.808 48.808v0z" />
<glyph unicode="&#xe904;" glyph-name="close" d="M12.407-52.42c7.496-7.556 17.883-12.233 29.363-12.233s21.868 4.677 29.361 12.231l0.003 0.003 440.866 441.693 441.693-441.693c7.515-7.515 17.896-12.163 29.363-12.163 22.934 0 41.526 18.592 41.526 41.526 0 11.467-4.648 21.849-12.163 29.363l-441.693 441.693 441.693 441.693c7.515 7.515 12.163 17.896 12.163 29.363 0 22.934-18.592 41.526-41.526 41.526-11.467 0-21.849-4.648-29.363-12.163v0l-441.693-442.52-441.693 441.693c-6.826 5.164-15.457 8.271-24.814 8.271-22.841 0-41.357-18.516-41.357-41.357 0-9.357 3.107-17.988 8.347-24.918l-0.075 0.104 441.693-441.693-441.693-441.693c-7.556-7.496-12.233-17.883-12.233-29.363s4.677-21.868 12.231-29.361l0.003-0.003z" />
<glyph unicode="&#xe905;" glyph-name="cv" horiz-adv-x="1025" d="M746.667 64c-11.782 0-21.333-9.551-21.333-21.333v0-51.2c0-0.002 0-0.005 0-0.007 0-6.919-5.49-12.556-12.352-12.792l-0.022-0.001h-657.92c-6.883 0.237-12.373 5.874-12.373 12.793 0 0.002 0 0.005 0 0.007v0 912.64c-0.005 0.129-0.007 0.281-0.007 0.434 0 6.922 5.494 12.56 12.359 12.793l0.021 0.001h499.627v-149.333c0-11.782 9.551-21.333 21.333-21.333v0h149.333v-66.56c0-11.782 9.551-21.333 21.333-21.333s21.333 9.551 21.333 21.333v0 87.893c0 0.004 0 0.008 0 0.013 0 14.384-6.243 27.309-16.168 36.214l-0.045 0.040-141.653 139.52c-8.235 9.801-20.438 16.037-34.103 16.213h-520.99c-30.45-0.241-55.042-24.981-55.042-55.465 0-0.151 0.001-0.301 0.002-0.451v0.023-912.64c-0.001-0.127-0.002-0.277-0.002-0.427 0-30.398 24.642-55.040 55.040-55.040 0.001 0 0.001 0 0.002 0h657.92c30.449 0.242 55.040 24.982 55.040 55.465 0 0.001 0 0.001 0 0.002v0 50.773c0.003 0.127 0.004 0.277 0.004 0.427 0 11.782-9.551 21.333-21.333 21.333-0.002 0-0.003 0-0.005 0v0zM704 789.333h-106.667v107.52zM445.44 405.333h-256c-11.782 0-21.333-9.551-21.333-21.333s9.551-21.333 21.333-21.333v0h256c11.782 0 21.333 9.551 21.333 21.333s-9.551 21.333-21.333 21.333v0zM445.44 277.333h-256c-11.782 0-21.333-9.551-21.333-21.333s9.551-21.333 21.333-21.333v0h256c11.782 0 21.333 9.551 21.333 21.333s-9.551 21.333-21.333 21.333v0zM445.44 536.32h-256c-11.782 0-21.333-9.551-21.333-21.333s9.551-21.333 21.333-21.333v0h256c11.782 0 21.333 9.551 21.333 21.333s-9.551 21.333-21.333 21.333v0zM1001.813 234.667c-111.36 45.653-134.827 65.707-139.093 70.827v10.24c13.142 16.663 23.387 36.306 29.568 57.674l0.299 1.206c10.802 10.872 17.479 25.855 17.479 42.397 0 11.098-3.005 21.494-8.246 30.419l0.153-0.283v46.080c0.232 2.593 0.365 5.608 0.365 8.655 0 56.79-46.037 102.827-102.827 102.827-3.735 0-7.424-0.199-11.056-0.587l0.451 0.039c-2.76 0.26-5.969 0.408-9.212 0.408-57.497 0-104.107-46.61-104.107-104.107 0-2.546 0.091-5.070 0.271-7.57l-0.019 0.335v-45.227c-4.991-8.577-7.937-18.878-7.937-29.866 0-16.465 6.614-31.384 17.33-42.247l-0.007 0.007c6.48-22.574 16.725-42.217 30.143-59.243l-0.276 0.363v-9.813c-5.547-6.4-30.293-26.453-139.093-71.253-13.649-5.825-23.042-19.131-23.042-34.632 0-0.125 0.001-0.249 0.002-0.374v0.019-57.6c-0.002-0.128-0.002-0.278-0.002-0.429 0-20.352 16.378-36.878 36.673-37.117h399.383c20.318 0.24 36.696 16.766 36.696 37.118 0 0.151-0.001 0.302-0.003 0.452v-0.023 57.6c-0.538 15.316-10.17 28.253-23.64 33.618l-0.254 0.089zM981.333 149.333h-384v48.64c139.093 57.173 156.16 80.64 161.28 97.707 0.136 0.897 0.214 1.933 0.214 2.987s-0.078 2.089-0.228 3.101l0.014-0.114v23.040c0 0.047 0.001 0.102 0.001 0.157 0 5.534-2.107 10.575-5.562 14.367l0.015-0.017c-12.948 14.855-22.585 32.943-27.548 52.879l-0.186 0.881c-1.269 4.716-3.983 8.676-7.63 11.483l-0.050 0.037c-3.219 2.586-5.418 6.327-5.965 10.586l-0.008 0.081c-0.123 0.778-0.193 1.675-0.193 2.589 0 4.020 1.356 7.724 3.636 10.678l-0.030-0.041c2.664 3.521 4.267 7.973 4.267 12.8v0 52.053c-0.297 2.268-0.466 4.891-0.466 7.554 0 33.932 27.508 61.44 61.44 61.44 3.327 0 6.593-0.264 9.777-0.774l-0.351 0.046c47.36 0 70.4-22.187 70.4-68.267v-51.627c0-4.827 1.603-9.279 4.306-12.854l-0.039 0.054c2.238-2.958 3.585-6.698 3.585-10.753 0-0.872-0.062-1.73-0.183-2.569l0.011 0.096c-0.555-4.339-2.754-8.081-5.942-10.642l-0.032-0.025c-3.697-2.844-6.411-6.804-7.646-11.371l-0.034-0.149c-5.019-20.788-14.515-38.879-27.449-53.93l0.142 0.17c-3.44-3.774-5.547-8.816-5.547-14.35 0-0.055 0-0.11 0.001-0.166v0.008-23.040c-0.134-0.897-0.21-1.933-0.21-2.987s0.076-2.089 0.224-3.102l-0.014 0.115c5.12-17.493 22.187-42.667 161.28-97.707z" />
<glyph unicode="&#xe906;" glyph-name="home" horiz-adv-x="1070" d="M925.409-64h-274.71c-12.375 0-22.407 10.032-22.407 22.407v0 370.164h-186.874v-370.164c0-12.375-10.032-22.407-22.407-22.407v0h-274.71c-31.735 0.253-57.364 26.038-57.364 57.808 0 0.158 0.001 0.316 0.002 0.474v-0.024 423.94c-6.952-1.586-14.978-2.559-23.209-2.688l-0.095-0.001c-0.855-0.047-1.856-0.073-2.863-0.073-16.67 0-31.639 7.282-41.901 18.838l-0.050 0.058c-11.512 13.844-18.499 31.808-18.499 51.403 0 24.123 10.589 45.773 27.373 60.556l0.089 0.077 455.31 395.26c13.794 11.904 31.895 19.155 51.69 19.155 18.036 0 34.667-6.020 47.992-16.16l-0.195 0.142 5.378-3.137 453.966-394.811c16.873-14.859 27.462-36.509 27.462-60.632 0-19.595-6.987-37.558-18.605-51.534l0.106 0.132c-10.312-11.614-25.281-18.895-41.951-18.895-1.007 0-2.008 0.027-3.002 0.079l0.139-0.006c-8.178 0.15-16.046 1.122-23.632 2.836l0.777-0.148v-424.389c0.001-0.133 0.002-0.291 0.002-0.448 0-31.928-25.882-57.81-57.81-57.81-0.001 0-0.001 0-0.002 0v0zM673.106-19.186h252.303c6.986 0.244 12.556 5.966 12.556 12.989 0 0.16-0.003 0.32-0.009 0.479l0.001-0.023v454.414c0 0.023 0 0.051 0 0.078 0 12.375 10.032 22.407 22.407 22.407 3.242 0 6.323-0.689 9.105-1.927l-0.143 0.057c10.655-4.663 23.019-7.718 35.997-8.5l0.303-0.015c0.592-0.075 1.278-0.118 1.973-0.118 3.442 0 6.639 1.049 9.289 2.844l-0.058-0.037c4.709 6.009 7.551 13.677 7.551 22.009 0 10.428-4.452 19.816-11.559 26.367l-0.025 0.023-452.173 392.571-4.93 3.137c-5.919 5.311-13.784 8.559-22.407 8.559s-16.488-3.248-22.438-8.586l0.031 0.028-453.966-395.708c-7.377-6.595-11.998-16.14-11.998-26.764 0-8.566 3.004-16.43 8.017-22.597l-0.052 0.066c2.592-1.758 5.788-2.807 9.23-2.807 0.695 0 1.381 0.043 2.054 0.126l-0.081-0.008c13.133 0.338 25.56 2.94 37.043 7.426l-0.744-0.256c2.64 1.182 5.721 1.871 8.963 1.871 12.375 0 22.407-10.032 22.407-22.407 0-0.027 0-0.055 0-0.082v0.004-452.621c-0.005-0.136-0.008-0.295-0.008-0.456 0-7.023 5.57-12.744 12.534-12.988l0.022-0.001h252.303v370.612c0 12.375 10.032 22.407 22.407 22.407v0h231.688c12.375 0 22.407-10.032 22.407-22.407v0z" />
<glyph unicode="&#xe907;" glyph-name="lock" horiz-adv-x="783" d="M153.578-64c-0.129-0.001-0.281-0.001-0.433-0.001-62.208 0-112.666 50.307-112.912 112.457v0.023l-40.233 422.232c-0.009 0.517-0.013 1.127-0.013 1.738 0 62.121 50.359 112.48 112.48 112.48 0.461 0 0.922-0.003 1.381-0.008l-0.070 0.001 554.613 2.596c0.129 0.001 0.283 0.001 0.436 0.001 62.056 0 112.42-50.061 112.909-112.002v-0.046l-40.233-423.963c0-62.599-50.746-113.345-113.345-113.345v0h-475.877zM110.317 541.661c-36.998-1.19-66.595-31.241-67.055-68.309v-0.044l40.666-421.8c-0.004-0.265-0.006-0.577-0.006-0.889 0-19.587 7.937-37.321 20.771-50.159v0c12.267-12.555 29.368-20.341 48.288-20.341 0.362 0 0.723 0.003 1.084 0.009l-0.054-0.001h475.877c0 0 0.001 0 0.001 0 38.554 0 69.837 31.131 70.082 69.628v0.023s0 3.894 0 4.759l40.666 423.963c-1.435 37.095-31.854 66.623-69.17 66.623-0.017 0-0.034 0-0.051 0h0.003l-557.641-3.461zM439.537 109.046h-96.473c-0.046 0-0.101-0.001-0.156-0.001-11.032 0-20.135 8.258-21.464 18.93l-0.011 0.106-18.602 149.685c-0.065 0.648-0.102 1.401-0.102 2.163s0.037 1.515 0.11 2.257l-0.007-0.094c0 48.622 39.416 88.037 88.037 88.037s88.037-39.416 88.037-88.037v0c0.070-0.649 0.111-1.401 0.111-2.163s-0.040-1.514-0.119-2.255l0.008 0.092-18.17-149.685c-1.328-10.684-10.283-18.891-21.183-19.035h-0.015zM362.099 152.308h57.97l15.574 129.785c0 24.609-19.95 44.559-44.559 44.559s-44.559-19.95-44.559-44.559v0zM584.030 541.661c-11.946 0-21.631 9.684-21.631 21.631v0 193.379c-5.162 89.491-78.995 160.109-169.32 160.109-1.31 0-2.617-0.015-3.92-0.044l0.194 0.003c-0.966 0.020-2.105 0.031-3.247 0.031-90.866 0-165.083-71.282-169.782-160.978l-0.017-0.419v-192.081c0-11.946-9.684-21.631-21.631-21.631s-21.631 9.684-21.631 21.631v0 193.379c5.448 113.442 98.748 203.354 213.048 203.354 1.146 0 2.29-0.009 3.432-0.027l-0.172 0.002h5.624c113.175-0.823 205.251-90.029 210.665-201.976l0.019-0.488v-194.677c-0.243-11.759-9.832-21.198-21.626-21.198-0.002 0-0.003 0-0.005 0v0z" />
<glyph unicode="&#xe909;" glyph-name="map" d="M535.033 755.2c-65.777 0-119.467-53.689-119.467-119.467s53.689-119.467 119.467-119.467c65.777 0 119.467 53.689 119.467 119.467s-53.689 119.467-119.467 119.467zM535.033 721.067c47.33 0 85.333-38.003 85.333-85.333s-38.003-85.333-85.333-85.333c-47.33 0-85.333 38.003-85.333 85.333s38.003 85.333 85.333 85.333zM531.867 959.633c-83.648 0-167.296-31.796-231.1-95.4v-0.033l-29.233-29.133h5.6c-92.829-120.094-97.852-310.003-6.833-431.4 0.009-0.012 0.024-0.020 0.034-0.034l261.833-378.167 14 20.3 247.267 357.867c91.046 121.396 86.038 311.328-6.801 431.434h5.6l-29.267 29.167c-63.803 63.604-147.451 95.4-231.099 95.4zM531.867 925.7c74.85 0 149.717-28.54 207-85.633 102.112-102.112 114.055-300.249 27.267-415.967l-0.2-0.267-233.8-338.367-234.5 338.633c-86.788 115.718-74.845 313.855 27.267 415.967 57.283 57.093 132.117 85.633 206.967 85.633zM28.833-17.6c-4.608-0.132-8.74-2.071-11.73-5.13l-0.003-0.003-12.1-12.133c-3.237-3.111-5.247-7.477-5.247-12.312 0-9.427 7.642-17.068 17.068-17.068 4.835 0 9.201 2.011 12.307 5.242l0.005 0.006 12.133 12.1c3.192 3.105 5.173 7.441 5.173 12.24 0 9.427-7.642 17.068-17.068 17.068-0.189 0-0.377-0.003-0.565-0.009l0.027 0.001zM133.333 65.667l-2.7-15.033 10.433-11.167 5.933-1.067h31.067l13.667 6.867 2.7 15.033-10.433 11.167-5.933 1.067h-31.067zM226.5 65.667l-2.667-15.033 10.433-11.167 5.933-1.067h31.033l13.7 6.867 2.667 15.033-10.433 11.167-5.933 1.067h-31.033zM319.7 65.667l-2.7-15.033 10.433-11.167 5.933-1.067h31.067l13.667 6.867 2.7 15.033-10.433 11.167-5.933 1.067h-31.067zM82.933 43.067l-21.967-21.967-4.8-14.5 8.733-12.533 15.267-0.533 4.933 3.433 21.967 21.967 4.833 14.533-8.733 12.533-15.3 0.5zM426.667 72.533c-0.072 0.001-0.156 0.002-0.241 0.002-9.427 0-17.068-7.642-17.068-17.068s7.642-17.068 17.068-17.068c0.085 0 0.17 0.001 0.254 0.002h17.054c0.072-0.001 0.156-0.002 0.241-0.002 9.427 0 17.068 7.642 17.068 17.068s-7.642 17.068-17.068 17.068c-0.085 0-0.17-0.001-0.254-0.002h-17.054zM119.467 157.867c-0.072 0.001-0.156 0.002-0.241 0.002-9.427 0-17.068-7.642-17.068-17.068s7.642-17.068 17.068-17.068c0.085 0 0.17 0.001 0.254 0.002h255.987c0.072-0.001 0.156-0.002 0.241-0.002 9.427 0 17.068 7.642 17.068 17.068s-7.642 17.068-17.068 17.068c-0.085 0-0.17-0.001-0.254-0.002h-255.987zM1006.6 175.1c-4.613-0.142-8.744-2.092-11.73-5.163l-0.004-0.004-12.133-12.1c-3.092-3.092-5.005-7.365-5.005-12.083 0-9.438 7.651-17.088 17.088-17.088 4.719 0 8.991 1.913 12.083 5.005v0l12.1 12.133c3.191 3.105 5.172 7.441 5.172 12.239 0 9.427-7.642 17.068-17.068 17.068-0.177 0-0.353-0.003-0.529-0.008l0.026 0.001zM931.2 106.267l-25.833-25.8-4.8-14.533 8.733-12.533 15.267-0.533 4.967 3.433 25.8 25.833 4.833 14.533-8.733 12.533-15.3 0.5zM690.333 65.667l-2.7-15.033 10.433-11.167 5.933-1.067h36.533l13.667 6.867 2.7 15.033-10.467 11.167-5.9 1.067h-36.533zM799.733 65.667l-2.7-15.033 10.433-11.167 5.933-1.067h36.533l13.667 6.867 2.7 15.033-10.467 11.167-5.9 1.067h-36.533zM614.4 72.533c-0.072 0.001-0.156 0.002-0.241 0.002-9.427 0-17.068-7.642-17.068-17.068s7.642-17.068 17.068-17.068c0.085 0 0.17 0.001 0.254 0.002h17.054c0.072-0.001 0.156-0.002 0.241-0.002 9.427 0 17.068 7.642 17.068 17.068s-7.642 17.068-17.068 17.068c-0.085 0-0.17-0.001-0.254-0.002h-17.054zM1006.633 68.6c-4.621-0.123-8.765-2.064-11.764-5.13l-0.003-0.003-66.267-66.134c-1.485-1.499-3.131-2.834-4.867-4.033l-3.433-1.867-0.6-0.4c-1.335-0.88-2.806-1.52-4.367-1.867l-0.667-0.133-3.933-1.2c-2.061-0.389-4.135-0.628-6.233-0.633l-769.899 0.001-25.833-20.833c-3.9-3.155-6.372-7.939-6.372-13.302 0-9.427 7.642-17.070 17.070-17.070 4.067 0 7.802 1.422 10.734 3.797l-0.032-0.025 16.5 13.3h757.9c4.509 0.011 9.014 0.469 13.433 1.367l0.833 0.167 5.233 1.6-1.333-0.333c5.615 1.248 10.964 3.501 15.767 6.667l-1.233-0.733 4.467 2.433 0.633 0.433c3.742 2.51 7.225 5.37 10.4 8.567l0.067 0.067 66.167 66c3.191 3.105 5.171 7.44 5.171 12.238 0 9.427-7.642 17.068-17.068 17.068-0.165 0-0.329-0.002-0.493-0.007l0.024 0.001zM934.233 209.233c-4.613-0.142-8.744-2.092-11.73-5.163l-46.204-46.204h-193.633c-0.072 0.001-0.156 0.002-0.241 0.002-9.427 0-17.068-7.642-17.068-17.068s7.642-17.068 17.068-17.068c0.085 0 0.17 0.001 0.254 0.002h207.754l56.2 56.2c3.191 3.105 5.172 7.441 5.172 12.239 0 9.427-7.642 17.068-17.068 17.068-0.177 0-0.353-0.003-0.529-0.008l0.026 0.001z" />
<glyph unicode="&#xe90a;" glyph-name="menu" horiz-adv-x="1476" d="M1416.737 388.369h-1357.106c-32.934 0-59.631 26.698-59.631 59.631s26.698 59.631 59.631 59.631h1357.106c32.934 0 59.631-26.698 59.631-59.631s-26.698-59.631-59.631-59.631v0zM1416.737 840.737h-1357.106c-32.934 0-59.631 26.698-59.631 59.631s26.698 59.631 59.631 59.631v0h1357.106c32.934 0 59.631-26.698 59.631-59.631s-26.698-59.631-59.631-59.631v0zM1416.737-64h-1357.106c-32.934 0-59.631 26.698-59.631 59.631s26.698 59.631 59.631 59.631h1357.106c32.934 0 59.631-26.698 59.631-59.631s-26.698-59.631-59.631-59.631v0z" />
<glyph unicode="&#xe90b;" glyph-name="money" horiz-adv-x="773" d="M768.215 874.022l-58.035 73.941c-5.124 7.003-13.16 11.613-22.29 12.035l-0.064 0.002c-9.734-0.179-18.301-5.020-23.583-12.378l-0.061-0.089-36.111-49.008-37.83 49.008c-5.471 7.507-14.195 12.359-24.057 12.467h-0.017c-0.034 0-0.073 0-0.113 0-9.999 0-18.859-4.877-24.331-12.381l-0.060-0.086-35.681-49.008-35.681 48.578c-5.473 7.787-14.392 12.83-24.493 12.897h-0.010c-0.346 0.016-0.752 0.025-1.16 0.025-9.894 0-18.549-5.306-23.275-13.227l-0.069-0.124-34.391-49.867-38.26 50.297c-5.391 7.674-14.126 12.683-24.041 12.896l-0.033 0.001c-9.785-0.357-18.336-5.333-23.58-12.801l-0.064-0.096-36.541-49.008-35.681 49.437c-5.532 7.59-14.392 12.467-24.391 12.467-0.040 0-0.080 0-0.119 0h0.006c-0.034 0-0.073 0-0.113 0-9.999 0-18.859-4.877-24.331-12.381l-0.060-0.086-35.681-49.008-35.681 48.578c-5.052 7.247-13.064 12.129-22.246 12.889l-0.109 0.007c-0.412 0.020-0.895 0.032-1.38 0.032-10.013 0-18.883-4.89-24.353-12.412l-0.060-0.086-55.886-73.511c-2.684-3.548-4.299-8.034-4.299-12.897v0-902.771c0-11.871 9.623-21.495 21.495-21.495v0h730.814c11.871 0 21.495 9.623 21.495 21.495v0 902.771c-0.391 5.009-2.445 9.476-5.603 12.912l0.014-0.015zM730.814-21.011h-687.825v874.398l42.989 54.166 36.111-49.008c5.471-7.507 14.195-12.359 24.057-12.467h0.017c9.879 0.108 18.603 4.959 24.014 12.381l0.060 0.086 35.681 49.008 35.681-49.437c5.471-7.507 14.195-12.359 24.057-12.467h0.017c9.879 0.108 18.603 4.959 24.014 12.381l0.060 0.086 35.681 49.008 36.971-50.297c4.729-7.348 12.866-12.145 22.124-12.145 0.838 0 1.667 0.039 2.484 0.116l-0.105-0.008c9.879 0.108 18.603 4.959 24.014 12.381l0.060 0.086 35.681 49.867 35.681-48.148c5.471-7.507 14.195-12.359 24.057-12.467h0.017c9.879 0.108 18.603 4.959 24.014 12.381l0.060 0.086 35.681 49.008 35.681-49.437c5.471-7.507 14.195-12.359 24.057-12.467h0.017c9.879 0.108 18.603 4.959 24.014 12.381l0.060 0.086 37.83 49.437 42.989-55.026zM450.955 150.086h-300.924c-11.871 0-21.495-9.623-21.495-21.495s9.623-21.495 21.495-21.495v0h300.924c11.871 0 21.495 9.623 21.495 21.495s-9.623 21.495-21.495 21.495v0zM450.955 279.053h-300.924c-11.871 0-21.495-9.623-21.495-21.495s9.623-21.495 21.495-21.495v0h300.924c11.871 0 21.495 9.623 21.495 21.495s-9.623 21.495-21.495 21.495v0zM622.912 150.086h-42.989c-11.871 0-21.495-9.623-21.495-21.495s9.623-21.495 21.495-21.495v0h42.989c11.871 0 21.495 9.623 21.495 21.495s-9.623 21.495-21.495 21.495v0zM622.912 279.053h-42.989c-11.871 0-21.495-9.623-21.495-21.495s9.623-21.495 21.495-21.495v0h42.989c11.871 0 21.495 9.623 21.495 21.495s-9.623 21.495-21.495 21.495v0zM211.506 440.262v-9.028c0-11.871 9.623-21.495 21.495-21.495s21.495 9.623 21.495 21.495v0 9.458c32.558 7.169 56.764 35.19 58.031 69.079l0.004 0.134c0 49.867-55.456 66.203-73.081 71.362-37.83 12.037-42.989 21.495-42.989 30.522 2.131 16.652 16.215 29.392 33.275 29.392 1.15 0 2.287-0.058 3.407-0.171l-0.141 0.012c0.413 0.016 0.897 0.025 1.384 0.025 12.813 0 24.171-6.228 31.212-15.823l0.076-0.108c3.31-7.869 10.956-13.294 19.869-13.294 11.871 0 21.495 9.623 21.495 21.495 0 5.844-2.332 11.143-6.116 15.017l0.004-0.004c-10.955 16.043-27.263 27.734-46.309 32.554l-0.549 0.118v9.028c0 11.871-9.623 21.495-21.495 21.495s-21.495-9.623-21.495-21.495v0-9.458c-32.558-7.169-56.764-35.19-58.031-69.079l-0.004-0.134c0-48.578 51.157-64.484 73.511-71.362 42.989-12.467 42.989-25.793 42.989-30.092-2.131-16.652-16.215-29.392-33.275-29.392-1.15 0-2.287 0.058-3.407 0.171l0.141-0.012c-19.936 2.113-37.665 10.216-51.698 22.449l0.111-0.095c-3.653 2.962-8.359 4.755-13.483 4.755-11.871 0-21.495-9.623-21.495-21.495 0-6.088 2.531-11.584 6.598-15.495l0.007-0.007c16.219-14.044 35.849-24.611 57.459-30.297l1.006-0.225z" />
<glyph unicode="&#xe90c;" glyph-name="phone" horiz-adv-x="1018" d="M680.767 341.918c-7.825 7.37-18.397 11.899-30.027 11.899s-22.203-4.529-30.050-11.92l0.022 0.021s-59.616-58.301-64.877-61.37c-35.068 0-123.616 74.082-178.849 149.918-17.113 19.35-29.893 42.94-36.569 68.976l-0.252 1.161 64 64.877c7.495 7.851 12.107 18.51 12.107 30.247s-4.612 22.395-12.123 30.264l0.016-0.017-209.534 212.603c-7.876 7.621-18.623 12.317-30.466 12.317s-22.589-4.697-30.478-12.329l0.012 0.012-21.479-20.603c-51.726-48.219-112.219-103.89-112.219-195.507 0-109.589 78.466-244.164 253.808-422.575s309.918-263.014 419.507-263.014v0c96 0 155.616 64.438 208.219 121.425l10.959 11.836c7.247 7.797 11.695 18.283 11.695 29.808s-4.448 22.011-11.72 29.835l0.025-0.027zM849.096 87.233c-50.849-55.233-99.068-107.397-175.342-107.397-96 0-222.685 81.973-388.384 250.74s-241.534 295.014-241.534 391.014c0 75.397 50.849 119.233 98.63 163.068 7.302 6.646 14.030 13.514 20.351 20.746l0.252 0.295 210.411-210.411-66.63-63.562c-14.466-15.342-15.342-38.137-2.192-68.384 34.192-78.904 175.342-225.753 249.425-225.753v0c0.080 0 0.175-0.001 0.27-0.001 8.205 0 15.955 1.943 22.817 5.394l-0.292-0.133 8.767 6.137c3.945 3.507 62.247 60.932 62.685 62.247l210.411-211.288zM825.863 483.507c-0.012-0.267-0.018-0.579-0.018-0.894 0-11.803 9.33-21.427 21.016-21.9l0.043-0.001c0.005 0 0.011 0 0.018 0 11.797 0 21.416 9.319 21.899 20.997l0.001 0.044c0.125 3.326 0.196 7.232 0.196 11.154 0 175.763-142.484 318.247-318.247 318.247-3.923 0-7.829-0.071-11.717-0.212l0.563 0.016c-11.73-0.474-21.059-10.098-21.059-21.901 0-0.314 0.007-0.627 0.020-0.938l-0.001 0.044c0.712-11.77 10.432-21.046 22.318-21.046 0.168 0 0.335 0.002 0.502 0.006h-0.025c3.618 0.174 7.858 0.273 12.121 0.273 74.987 0 142.823-30.616 191.69-80.029l0.024-0.025c49.928-49.437 80.843-117.996 80.843-193.777 0-3.537-0.067-7.059-0.201-10.564l0.015 0.505zM881.534 823.233c-83.367 84.578-199.187 136.974-327.245 136.974-4.851 0-9.685-0.075-14.5-0.224l0.704 0.017c-11.917-0.243-21.484-9.961-21.484-21.914 0-0.156 0.002-0.311 0.005-0.466v0.023c0.911-11.781 10.486-21.052 22.315-21.478l0.041-0.001c3.214 0.089 6.997 0.14 10.792 0.14 115.823 0 220.591-47.334 296.015-123.713l0.042-0.043c76.424-76.066 123.717-181.341 123.717-297.662 0-3.231-0.036-6.453-0.109-9.666l0.009 0.479c-0.003-0.132-0.004-0.287-0.004-0.443 0-11.952 9.567-21.67 21.461-21.913h0.023c0.001 0 0.003 0 0.004 0 11.951 0 21.668 9.565 21.913 21.457v0.023c0.11 3.762 0.172 8.187 0.172 12.628 0 127.032-51.121 242.123-133.912 325.825l0.041-0.042zM519.014 639.123c0.445-11.512 9.884-20.676 21.464-20.676 0.622 0 1.239 0.026 1.848 0.078l-0.079-0.005c2.297 0.147 4.98 0.231 7.683 0.231 35.128 0 66.951-14.151 90.080-37.063l-0.010 0.010c22.915-22.924 37.087-54.588 37.087-89.562 0-2.882-0.096-5.742-0.286-8.576l0.021 0.384c-0.027-0.404-0.042-0.876-0.042-1.352 0-11.657 9.1-21.188 20.584-21.878l0.061-0.003c0.012 0 0.026 0 0.039 0 11.642 0 21.164 9.077 21.875 20.54l0.003 0.062c0.241 3.391 0.378 7.348 0.378 11.337 0 93.934-76.148 170.082-170.082 170.082-3.989 0-7.946-0.137-11.866-0.408l0.529 0.029c-10.943-1.335-19.337-10.57-19.337-21.765 0-0.516 0.018-1.029 0.053-1.536l-0.004 0.068z" />
<glyph unicode="&#xe90d;" glyph-name="phone_b" horiz-adv-x="1013" d="M433.935 218.603c-4.027 5.145-10.238 8.42-17.214 8.42-0.85 0-1.688-0.049-2.512-0.143l0.101 0.009c-28.784-3.489-58.003-8.722-87.223-14.828-46.401 61.818-87.566 132.098-120.329 206.896l-2.655 6.801c19.625 21.37 38.378 43.612 56.259 67.598 2.269 3.386 3.621 7.551 3.621 12.033 0 3.563-0.854 6.926-2.37 9.896l0.057-0.124c-21.751 54.812-41.037 120.283-54.563 187.835l-1.26 7.545c-3.073 10.395-10.575 18.612-20.265 22.594l-0.232 0.084c-3.862 1.241-8.305 1.956-12.915 1.956-7.744 0-15.017-2.019-21.321-5.558l0.219 0.113s-76.756-37.942-112.954-58.003c-17.459-9.788-30.357-25.957-35.64-45.272l-0.121-0.52c-2.081-6.643-3.28-14.281-3.28-22.2 0-3.552 0.241-7.047 0.708-10.471l-0.044 0.398c43.628-259.591 177.488-482.082 367.599-638.785l1.791-1.433c8.328-6.731 18.259-11.85 29.109-14.706l0.547-0.122c5.883-1.65 12.64-2.604 19.618-2.617h0.007c0.025 0 0.054 0 0.083 0 13.979 0 27.050 3.892 38.187 10.651l-0.327-0.185c34.453 20.497 92.020 57.567 106.412 68.034 10.388 6.072 17.715 16.416 19.597 28.559l0.029 0.225c0.115 1.096 0.181 2.368 0.181 3.656 0 10.348-4.24 19.707-11.079 26.431l-0.005 0.005c-49.978 44.468-95.108 91.949-136.041 142.944l-1.772 2.283zM433.935-16.899c-4.595-2.785-10.148-4.433-16.086-4.433-3.286 0-6.454 0.505-9.431 1.441l0.222-0.060c-4.69 1.238-8.778 3.345-12.275 6.155l0.064-0.049c-183.718 152.023-311.657 365.76-352.018 609.082l-0.8 5.842c-0.449 2.032-0.706 4.366-0.706 6.76s0.257 4.728 0.745 6.976l-0.039-0.216c2.167 8.316 7.534 15.106 14.674 19.11l0.154 0.079c29.656 16.572 87.223 43.612 106.412 54.951 15.18-69.304 33.49-128.795 56.053-186.148l-2.847 8.212c-17.445-22.678-36.198-43.612-55.387-64.981-3.68-3.895-5.943-9.164-5.943-14.962 0-2.938 0.581-5.74 1.634-8.298l-0.053 0.145c39.732-94.579 87.716-176.171 144.939-250.263l-1.893 2.55c4.027-5.153 10.243-8.435 17.225-8.435 1.78 0 3.51 0.213 5.166 0.615l-0.149-0.031c27.475 6.106 55.823 11.339 84.17 15.264 40.029-49.159 81.844-93.185 126.76-133.848l1.022-0.911c-16.572-10.903-68.034-43.612-99.434-63.673zM407.332 328.504h152.641c12.043 0 21.806 9.763 21.806 21.806s-9.763 21.806-21.806 21.806v0h-100.743l74.14 76.32c24.992 21.83 42.044 52.199 46.588 86.515l0.077 0.708c0.056 1.166 0.088 2.533 0.088 3.907 0 24.004-9.696 45.743-25.386 61.515l0.004-0.004c-17.244 20.863-43.127 34.057-72.091 34.057-11.537 0-22.585-2.093-32.785-5.921l0.644 0.212c-31.139-11.033-53.841-38.4-57.96-71.534l-0.043-0.426c-0.003-0.131-0.004-0.286-0.004-0.44 0-11.891 9.518-21.559 21.352-21.801h0.023c0.26-0.011 0.565-0.018 0.872-0.018 11.802 0 21.37 9.568 21.37 21.37 0 0.006 0 0.013 0 0.019v-0.001c3.592 14.859 14.431 26.564 28.476 31.31l0.307 0.090c5.403 2.192 11.669 3.464 18.233 3.464 16.465 0 31.061-8.004 40.109-20.334l0.097-0.139c8.353-7.96 13.547-19.17 13.547-31.593 0-0.546-0.010-1.089-0.030-1.63l0.002 0.078c-4.452-23.25-16.509-43.138-33.435-57.447l-0.146-0.12-110.773-114.698c-3.855-3.93-6.234-9.319-6.234-15.264 0-12.043 9.763-21.806 21.806-21.806 0.045 0 0.090 0 0.135 0h-0.007zM785.009 436.661h-23.986v169.213c-0.151 11.928-9.855 21.539-21.804 21.539-7.372 0-13.89-3.658-17.836-9.258l-0.046-0.069-130.835-190.583c-2.586-3.54-4.137-7.978-4.137-12.779 0-12.043 9.763-21.806 21.806-21.806 0.843 0 1.675 0.048 2.493 0.141l-0.1-0.009h106.412v-43.612c0-12.043 9.763-21.806 21.806-21.806v0 0c12.043 0 21.806 9.763 21.806 21.806v0 43.612h24.422c12.043 0 21.806 9.763 21.806 21.806s-9.763 21.806-21.806 21.806v0zM717.411 436.661h-63.237l65.853 97.254zM622.773 834.835h6.106c0.039 0 0.086 0 0.132 0 9.707 0 17.933 6.343 20.759 15.11l0.043 0.154 19.189 63.673c0.57 1.894 0.898 4.070 0.898 6.324 0 12.539-10.165 22.704-22.704 22.704-10.286 0-18.974-6.84-21.765-16.22l-0.041-0.161-14.828-64.109c-0.802-2.18-1.266-4.697-1.266-7.323 0-9.039 5.499-16.793 13.334-20.099l0.143-0.054zM979.080 334.61l-63.237 19.189c-1.894 0.57-4.070 0.898-6.324 0.898-12.539 0-22.704-10.165-22.704-22.704 0-10.286 6.84-18.974 16.22-21.765l0.161-0.041 63.673-19.189h6.106c0.917-0.135 1.976-0.213 3.053-0.213 12.16 0 22.018 9.858 22.018 22.018 0 11.084-8.189 20.255-18.847 21.792l-0.118 0.014zM877.465 630.733c0.032 0 0.071 0 0.109 0 3.795 0 7.363 0.969 10.471 2.674l-0.113-0.057 58.876 31.4c7.653 3.497 12.876 11.085 12.876 19.893 0 12.043-9.763 21.806-21.806 21.806-4.287 0-8.285-1.237-11.657-3.374l0.089 0.053-58.876-31.4c-6.869-3.762-11.449-10.941-11.449-19.189 0-12.043 9.763-21.806 21.806-21.806 0.039 0 0.077 0 0.116 0h-0.006zM724.388 95.182c-3.497 7.653-11.085 12.876-19.893 12.876-12.043 0-21.806-9.763-21.806-21.806 0-4.287 1.237-8.285 3.374-11.657l-0.053 0.089 31.4-58.876c3.497-7.653 11.085-12.876 19.893-12.876 12.043 0 21.806 9.763 21.806 21.806 0 4.287-1.237 8.285-3.374 11.657l0.053-0.089zM290.889 813.901c3.497-7.653 11.085-12.876 19.893-12.876 12.043 0 21.806 9.763 21.806 21.806 0 4.287-1.237 8.285-3.374 11.657l0.053-0.089-31.4 58.876c-3.497 7.653-11.085 12.876-19.893 12.876-12.043 0-21.806-9.763-21.806-21.806 0-4.287 1.237-8.285 3.374-11.657l-0.053 0.089zM773.67 756.77c0.075-0.001 0.164-0.001 0.252-0.001 6.719 0 12.728 3.039 16.728 7.817l0.028 0.034 43.612 51.462c3.96 3.948 6.41 9.409 6.41 15.442 0 12.043-9.763 21.806-21.806 21.806-7.561 0-14.224-3.849-18.135-9.694l-0.050-0.079-43.612-51.462c-3.143-3.753-5.052-8.632-5.052-13.957 0-12.043 9.763-21.806 21.806-21.806 0.090 0 0.179 0.001 0.268 0.002h-0.014zM845.629 205.52c-3.386 2.269-7.551 3.621-12.033 3.621-12.043 0-21.806-9.763-21.806-21.806 0-6.010 2.431-11.452 6.364-15.396l-0.001 0.001 51.462-43.612c3.948-3.96 9.409-6.41 15.442-6.41 12.043 0 21.806 9.763 21.806 21.806 0 7.561-3.849 14.224-9.694 18.135l-0.079 0.050zM466.644 850.099v0c0.005 0 0.011 0 0.017 0 12.043 0 21.806 9.763 21.806 21.806 0 0.307-0.006 0.612-0.019 0.916l0.001-0.043-8.722 67.598c-1.146 11.128-10.471 19.734-21.806 19.734-12.103 0-21.915-9.811-21.915-21.915 0-0.768 0.040-1.527 0.117-2.274l-0.008 0.094 6.542-66.29c1.087-11.123 10.391-19.745 21.708-19.745 0.802 0 1.595 0.043 2.375 0.128l-0.097-0.008zM989.111 523.884l-66.29-6.542c-12.043 0-21.806-9.763-21.806-21.806s9.763-21.806 21.806-21.806v0 0l70.651 6.542c11.128 1.146 19.734 10.471 19.734 21.806 0 12.103-9.811 21.915-21.915 21.915-0.768 0-1.527-0.040-2.274-0.117l0.094 0.008z" />
<glyph unicode="&#xe90e;" glyph-name="sadface" d="M512-64c-282.323 0-512 229.677-512 512s229.677 512 512 512 512.038-229.677 512.038-512-229.716-512-512.038-512zM512 920.545c-260.984-0.022-472.545-211.596-472.545-472.583 0-261 211.583-472.583 472.583-472.583s472.583 211.583 472.583 472.583v0c-0.283 260.899-211.718 472.321-472.596 472.583h-0.025zM303.22 254.979c56.395 51.292 131.674 82.698 214.287 82.698 82.372 0 157.452-31.223 214.050-82.48l-0.271 0.242c5.223-4.731 12.185-7.626 19.824-7.626 16.335 0 29.578 13.242 29.578 29.578 0 8.697-3.754 16.517-9.729 21.929l-0.025 0.022c-66.766 60.468-155.761 97.477-253.399 97.477-97.96 0-187.218-37.253-254.382-98.364l0.306 0.274c-6.394-5.457-10.423-13.523-10.423-22.53 0-16.327 13.236-29.563 29.563-29.563 8.006 0 15.268 3.182 20.591 8.35l-0.007-0.007zM781.593 600.070c0 16.327-13.236 29.563-29.563 29.563-0.013 0-0.027 0-0.040 0h-151.57c-16.338 0-29.582-13.244-29.582-29.582s13.244-29.582 29.582-29.582v0h151.572c0.011 0 0.025 0 0.038 0 16.327 0 29.563 13.236 29.563 29.563 0 0 0 0 0 0v0zM474.845 600.070c0 16.327-13.236 29.563-29.563 29.563v0h-151.61c-16.338 0-29.582-13.244-29.582-29.582s13.244-29.582 29.582-29.582v0h151.61c16.327 0 29.563 13.236 29.563 29.563v0z" />
<glyph unicode="&#xe90f;" glyph-name="search" d="M720.376 189.020l242.565-242.565c6.526-6.725 15.649-10.898 25.747-10.898 19.806 0 35.862 16.056 35.862 35.862 0 10.15-4.216 19.314-10.993 25.838l-242.471 242.576c64.607 75.488 103.927 174.29 103.927 282.276 0 0.154 0 0.307 0 0.461v-0.023c-0.105 241.31-196.457 437.453-437.558 437.453s-437.453-196.143-437.453-437.453 196.352-437.453 437.662-437.453c0.127 0 0.277 0 0.428 0 107.989 0 206.794 39.32 282.88 104.423l-0.594-0.497zM71.724 522.547c0 201.789 164.149 365.729 365.729 365.729s365.729-164.149 365.729-365.729-164.149-365.729-365.729-365.729-365.729 164.149-365.729 365.729z" />
<glyph unicode="&#xe910;" glyph-name="search_1" d="M1004.35 62.199l-267.244 267.244c44.214 63.793 70.631 142.838 70.631 228.054 0 222.839-180.647 403.487-403.487 403.487s-403.487-180.647-403.487-403.487c0-222.839 180.647-403.487 403.487-403.487 85.216 0 164.262 26.417 229.394 71.509l-1.341-0.878 265.061-268.991c13.048-11.636 30.35-18.746 49.313-18.746 40.999 0 74.235 33.236 74.235 74.235 0 18.963-7.11 36.265-18.81 49.387l0.064-0.073zM43.667 556.95c0 198.481 160.901 359.383 359.383 359.383s359.383-160.901 359.383-359.383c0-198.481-160.901-359.383-359.383-359.383v0c-198.382 0.248-359.134 161.001-359.382 359.359v0.024zM971.599-10.726c-5.5-5.775-13.247-9.367-21.834-9.367s-16.334 3.592-21.822 9.354l-262.016 262.016c15.791 13.602 30.065 27.876 43.224 43.141l0.444 0.527 262.004-262.004c5.664-5.553 9.175-13.283 9.175-21.834s-3.511-16.281-9.17-21.829l-0.005-0.005zM634.924 421.145v5.24c11.528 14.073 20.628 30.652 26.351 48.732l0.286 1.049c8.273 8.061 13.952 18.749 15.686 30.715l0.034 0.289c0.087 1.111 0.136 2.406 0.136 3.712s-0.049 2.601-0.147 3.882l0.010-0.17c-0.094 9.839-2.841 19.018-7.558 26.879l0.134-0.242v37.554c0.103 1.648 0.162 3.573 0.162 5.512 0 51.851-42.034 93.885-93.885 93.885-4.059 0-8.058-0.258-11.981-0.757l0.465 0.048c-3.177 0.378-6.858 0.593-10.588 0.593-52.334 0-94.758-42.425-94.758-94.758 0-1.591 0.039-3.173 0.117-4.745l-0.009 0.221v-37.554c-4.602-7.614-7.352-16.797-7.423-26.617v-0.020c-0.077-1.11-0.121-2.406-0.121-3.712s0.044-2.602 0.13-3.886l-0.009 0.174c1.802-12.246 7.473-22.926 15.711-30.995l0.009-0.009c6.834-21.962 18.092-40.835 32.813-56.398l-0.063 0.067c4.031-4.75 10.005-7.744 16.679-7.744 12.058 0 21.834 9.775 21.834 21.834 0 6.565-2.897 12.453-7.483 16.456l-0.026 0.022c-11.115 11.95-19.442 26.644-23.852 42.949l-0.165 0.718c-1.287 5.062-4.242 9.295-8.234 12.184l-0.062 0.043c-2.164 1.65-3.629 4.123-3.926 6.943l-0.004 0.044s0 0 0 0c-0.003 0.087-0.004 0.19-0.004 0.293 0 2.375 0.825 4.558 2.203 6.277l-0.015-0.020c2.967 3.673 4.773 8.391 4.803 13.53v43.674c0 36.244 20.524 55.021 61.571 55.021s61.571-17.467 61.571-55.021v-43.667c0-0.008 0-0.018 0-0.028 0-5.14 1.813-9.857 4.834-13.547l-0.030 0.038c1.363-1.7 2.188-3.882 2.188-6.258 0-0.103-0.002-0.205-0.005-0.308v0.015s0 0 0 0c-0.419-2.696-1.859-4.995-3.904-6.532l-0.026-0.019c-4.028-2.957-6.974-7.18-8.263-12.075l-0.034-0.152c-4.575-17.023-12.903-31.718-24.075-43.73l0.058 0.063c-3.783-3.921-6.114-9.264-6.114-15.152 0-0.046 0-0.092 0-0.138v0.007-19.65c-0.157-0.984-0.247-2.119-0.247-3.275s0.090-2.291 0.263-3.398l-0.016 0.123c5.708-13.215 15.244-23.877 27.2-30.837l0.31-0.167c3.271-2.060 7.25-3.283 11.514-3.283 12.058 0 21.834 9.775 21.834 21.834 0 6.996-3.291 13.224-8.409 17.22l-0.048 0.036c-2.669 2.273-5.089 4.556-7.391 6.953l-0.032 0.034zM537.545 385.337c-131.002 51.964-157.639 74.671-162.879 80.348v13.974c15.37 18.563 27.345 40.566 34.592 64.618l0.342 1.32c11.871 11.657 19.229 27.876 19.229 45.813 0 11.921-3.25 23.083-8.912 32.649l0.163-0.298v50.654c0.17 2.339 0.267 5.068 0.267 7.819 0 63.427-51.418 114.845-114.845 114.845-4.865 0-9.659-0.303-14.365-0.89l0.562 0.057c-4.011 0.497-8.654 0.78-13.363 0.78-63.427 0-114.845-51.418-114.845-114.845 0-2.733 0.095-5.443 0.283-8.129l-0.020 0.362v-50.654c-5.809-9.466-9.25-20.929-9.25-33.196 0-18.395 7.738-34.983 20.136-46.686l0.031-0.029c7.688-24.693 19.485-46.085 34.747-64.501l-0.25 0.31v-11.79c-15.913-15.217-34.371-27.947-54.638-37.461l-1.256-0.53c-7.663-3.501-12.892-11.099-12.892-19.919 0-12.058 9.775-21.834 21.834-21.834 4.292 0 8.296 1.239 11.671 3.378l-0.089-0.053c69.431 37.117 75.545 57.204 78.165 64.628 0.148 0.984 0.233 2.12 0.233 3.275s-0.085 2.291-0.248 3.401l0.015-0.126v25.764c0 0.039 0 0.085 0 0.131 0 5.888-2.331 11.232-6.12 15.159l0.006-0.006c-15.077 16.665-26.305 37.101-32.1 59.714l-0.214 0.984c-1.414 4.876-4.342 8.936-8.233 11.746l-0.064 0.044c-4.234 3.206-7.138 7.976-7.849 13.436l-0.011 0.101c-0.124 0.847-0.195 1.825-0.195 2.82 0 4.905 1.721 9.408 4.591 12.938l-0.030-0.038c2.967 3.673 4.773 8.391 4.803 13.53v55.465c0 51.091 29.257 78.165 84.715 78.165s84.715-25.764 84.715-78.165v-57.641c0.031-5.146 1.837-9.864 4.836-13.578l-0.032 0.042c2.841-3.493 4.561-7.996 4.561-12.901 0-0.995-0.071-1.973-0.207-2.929l0.013 0.11c-0.67-5.576-3.588-10.364-7.808-13.5l-0.053-0.037c-3.955-2.854-6.882-6.914-8.258-11.636l-0.039-0.154c-6.027-23.592-17.252-44.024-32.424-60.822l0.111 0.124c-3.783-3.921-6.114-9.264-6.114-15.152 0-0.046 0-0.092 0-0.138v0.007-25.764c-0.16-0.984-0.252-2.119-0.252-3.275s0.092-2.291 0.268-3.397l-0.016 0.122c5.677-19.214 25.764-43.667 186.896-106.112v-24.89c0-12.058 9.775-21.834 21.834-21.834s21.834 9.775 21.834 21.834v0 25.764c0.001 0.112 0.002 0.243 0.002 0.375 0 16.097-9.571 29.958-23.333 36.204l-0.249 0.101z" />
<glyph unicode="&#xe911;" glyph-name="upload" horiz-adv-x="768" d="M751.36 804.267l-141.227 139.52c-8.268 9.757-20.451 15.977-34.093 16.213l-0.040 0.001h-520.96c-30.45-0.241-55.042-24.981-55.042-55.465 0-0.151 0.001-0.301 0.002-0.451v0.023-912.64c0 0 0-0.001 0-0.002 0-30.483 24.591-55.223 55.017-55.465h657.943c30.449 0.242 55.040 24.982 55.040 55.465 0 0.001 0 0.001 0 0.002v0 776.533c-0.112 14.449-6.507 27.383-16.584 36.219l-0.056 0.048zM706.133 789.333h-108.8v107.52zM712.96-21.333h-657.92c-6.883 0.237-12.373 5.874-12.373 12.793 0 0.002 0 0.005 0 0.007v0 912.64c-0.005 0.129-0.007 0.281-0.007 0.434 0 6.922 5.494 12.56 12.359 12.793l0.021 0.001h499.627v-149.333c0-11.782 9.551-21.333 21.333-21.333v0h149.333v-755.2c0-0.002 0-0.005 0-0.007 0-6.919-5.49-12.556-12.352-12.792l-0.022-0.001zM378.027 695.893h-3.413l-3.413 2.133c-1.090 0.198-2.345 0.311-3.627 0.311s-2.536-0.113-3.755-0.329l0.129 0.019c-1.090 0.198-2.345 0.311-3.627 0.311s-2.536-0.113-3.755-0.329l0.129 0.019-3.413-2.133h-3.413l-142.080-132.693c-4.135-3.915-6.709-9.444-6.709-15.573 0-11.835 9.594-21.429 21.429-21.429 5.705 0 10.89 2.23 14.73 5.865l-0.010-0.009 104.107 98.987v-502.613c0-11.782 9.551-21.333 21.333-21.333s21.333 9.551 21.333 21.333v0 502.613l106.24-97.707c3.83-3.626 9.015-5.856 14.72-5.856 11.835 0 21.429 9.594 21.429 21.429 0 6.13-2.574 11.658-6.699 15.564l-0.010 0.009z" />
<glyph unicode="&#xe912;" glyph-name="vi" horiz-adv-x="1415" d="M431.528-45.894c9.116-9.189 21.748-14.877 35.709-14.877s26.593 5.688 35.706 14.874l0.003 0.003 898.263 920.393c8.841 9.086 14.293 21.51 14.293 35.206 0 27.893-22.612 50.505-50.505 50.505-14.197 0-27.025-5.858-36.201-15.288l-0.011-0.011-861.045-890.216-381.234 395.316c-9.187 9.442-22.015 15.299-36.212 15.299-27.893 0-50.505-22.612-50.505-50.505 0-13.697 5.452-26.12 14.304-35.218l-0.011 0.011z" />
<glyph unicode="&#xe913;" glyph-name="help_outline" d="M512 682.667c94 0 170-76 170-170 0-106-128-118-128-214h-84c0 138 128 128 128 214 0 46-40 84-86 84s-86-38-86-84h-84c0 94 76 170 170 170zM512 84.667c188 0 342 154 342 342s-154 342-342 342-342-154-342-342 154-342 342-342zM512 852.667c236 0 426-190 426-426s-190-426-426-426-426 190-426 426 190 426 426 426zM470 170.667v86h84v-86h-84z" />
<glyph unicode="&#xe914;" glyph-name="help-circle" d="M563.2 674.134c-89.6 29.867-187.733-17.067-217.6-102.4-4.267-25.6 4.267-51.2 29.867-55.467 21.333-8.533 46.933 4.267 55.467 25.6 17.067 42.667 64 68.267 110.933 51.2 34.133-12.8 55.467-42.667 55.467-81.067 0-42.667-72.533-76.8-98.133-89.6-21.333-8.533-34.133-29.867-25.6-55.467 4.267-17.067 21.333-29.867 38.4-29.867 4.267 0 8.533 0 12.8 4.267 17.067 4.267 157.867 55.467 157.867 166.4-4.267 76.8-51.2 140.8-119.467 166.4zM512 896c-260.267 0-469.333-209.067-469.333-469.333s209.067-469.333 469.333-469.333 469.333 209.067 469.333 469.333-209.067 469.333-469.333 469.333zM512 42.667c-213.333 0-384 170.667-384 384s170.667 384 384 384c213.333 0 384-170.667 384-384s-170.667-384-384-384zM482.133 243.2c-8.533-8.533-12.8-17.067-12.8-29.867s4.267-21.333 12.8-29.867c8.533-8.533 17.067-12.8 29.867-12.8s21.333 4.267 29.867 12.8c8.533 8.533 12.8 21.333 12.8 29.867s-4.267 21.333-12.8 29.867c-17.067 17.067-42.667 17.067-59.733 0z" />
<glyph unicode="&#xe915;" glyph-name="question-circle-o" horiz-adv-x="878" d="M502.857 265.143v-91.429c0-10.286-8-18.286-18.286-18.286h-91.429c-10.286 0-18.286 8-18.286 18.286v91.429c0 10.286 8 18.286 18.286 18.286h91.429c10.286 0 18.286-8 18.286-18.286zM649.143 548.571c0-81.143-56.571-113.143-98.286-136.571-29.714-17.143-48-28-48-46.286v-18.286c0-10.286-8-18.286-18.286-18.286h-91.429c-10.286 0-18.286 8-18.286 18.286v38.857c0 70.286 50.286 92.571 90.857 110.857 34.286 16 55.429 26.857 55.429 52.571 0 33.143-41.714 57.714-79.429 57.714-20 0-41.143-6.286-54.286-15.429-12.571-8.571-24.571-21.143-45.714-47.429-3.429-4.571-8.571-6.857-14.286-6.857-4 0-8 1.143-10.857 3.429l-61.714 46.857c-7.429 5.714-9.143 16.571-4 24.571 46.857 73.714 112.571 109.714 199.429 109.714v0c93.714 0 198.857-74.286 198.857-173.714zM438.857 804.571c-201.714 0-365.714-164-365.714-365.714s164-365.714 365.714-365.714 365.714 164 365.714 365.714-164 365.714-365.714 365.714zM877.714 438.857c0-242.286-196.571-438.857-438.857-438.857s-438.857 196.571-438.857 438.857 196.571 438.857 438.857 438.857v0c242.286 0 438.857-196.571 438.857-438.857z" />
<glyph unicode="&#xe9a5;" glyph-name="mail" d="M1024-64h-1024v570.709l468.651 436.224c11.347 10.522 26.594 16.978 43.349 16.978s32.003-6.456 43.39-17.016l-0.041 0.037 468.651-436.224zM34.133-29.867h955.733v521.728l-457.728 426.667c-5.275 4.879-12.357 7.872-20.139 7.872s-14.863-2.993-20.158-7.89l0.020 0.018-457.728-426.667zM27.989-52.565h-5.12c-12.976 2.478-22.68 13.646-22.869 27.116v502.633c0.17 15.328 12.635 27.689 27.988 27.689 5.862 0 11.302-1.802 15.799-4.882l-0.096 0.062 359.936-273.92-358.4-273.067c-4.744-3.518-10.714-5.632-17.178-5.632-0.021 0-0.042 0-0.062 0h0.003zM34.133-24.917v0zM34.133 465.067v-477.867l313.173 238.933zM996.011-52.565c-5.877 0.030-11.316 1.878-15.791 5.009l0.090-0.060-359.936 273.749 358.4 273.067c4.371 3.152 9.791 5.107 15.658 5.29l0.044 0.001c0.348 0.016 0.755 0.025 1.165 0.025 7.328 0 13.969-2.942 18.806-7.709l-0.003 0.003c5.434-4.717 9.009-11.451 9.552-19.025l0.005-0.089v-503.125c-0.475-15.087-12.818-27.136-27.976-27.136-0.005 0-0.009 0-0.014 0h0.001zM1006.933-24.917v0zM676.693 226.133l313.173-238.933v477.867zM648.533 209.067h-290.133c-9.426 0-17.067 7.641-17.067 17.067s7.641 17.067 17.067 17.067v0h290.133c9.426 0 17.067-7.641 17.067-17.067s-7.641-17.067-17.067-17.067v0zM375.467 738.133c0-9.426-7.641-17.067-17.067-17.067s-17.067 7.641-17.067 17.067c0 9.426 7.641 17.067 17.067 17.067s17.067-7.641 17.067-17.067zM529.067 891.733c0-9.426-7.641-17.067-17.067-17.067s-17.067 7.641-17.067 17.067c0 9.426 7.641 17.067 17.067 17.067s17.067-7.641 17.067-17.067zM426.667 789.333c0-9.426-7.641-17.067-17.067-17.067s-17.067 7.641-17.067 17.067c0 9.426 7.641 17.067 17.067 17.067s17.067-7.641 17.067-17.067zM529.067 789.333c0-9.426-7.641-17.067-17.067-17.067s-17.067 7.641-17.067 17.067c0 9.426 7.641 17.067 17.067 17.067s17.067-7.641 17.067-17.067zM477.867 840.533c0-9.426-7.641-17.067-17.067-17.067s-17.067 7.641-17.067 17.067c0 9.426 7.641 17.067 17.067 17.067s17.067-7.641 17.067-17.067zM580.267 840.533c0-9.426-7.641-17.067-17.067-17.067s-17.067 7.641-17.067 17.067c0 9.426 7.641 17.067 17.067 17.067s17.067-7.641 17.067-17.067zM477.867 738.133c0-9.426-7.641-17.067-17.067-17.067s-17.067 7.641-17.067 17.067c0 9.426 7.641 17.067 17.067 17.067s17.067-7.641 17.067-17.067zM580.267 738.133c0-9.426-7.641-17.067-17.067-17.067s-17.067 7.641-17.067 17.067c0 9.426 7.641 17.067 17.067 17.067s17.067-7.641 17.067-17.067zM631.467 789.333c0-9.426-7.641-17.067-17.067-17.067s-17.067 7.641-17.067 17.067c0 9.426 7.641 17.067 17.067 17.067s17.067-7.641 17.067-17.067zM682.667 738.133c0-9.426-7.641-17.067-17.067-17.067s-17.067 7.641-17.067 17.067c0 9.426 7.641 17.067 17.067 17.067s17.067-7.641 17.067-17.067zM170.667 533.333c0-9.426-7.641-17.067-17.067-17.067s-17.067 7.641-17.067 17.067c0 9.426 7.641 17.067 17.067 17.067s17.067-7.641 17.067-17.067zM324.267 686.933c0-9.426-7.641-17.067-17.067-17.067s-17.067 7.641-17.067 17.067c0 9.426 7.641 17.067 17.067 17.067s17.067-7.641 17.067-17.067zM221.867 584.533c0-9.426-7.641-17.067-17.067-17.067s-17.067 7.641-17.067 17.067c0 9.426 7.641 17.067 17.067 17.067s17.067-7.641 17.067-17.067zM324.267 584.533c0-9.426-7.641-17.067-17.067-17.067s-17.067 7.641-17.067 17.067c0 9.426 7.641 17.067 17.067 17.067s17.067-7.641 17.067-17.067zM273.067 635.733c0-9.426-7.641-17.067-17.067-17.067s-17.067 7.641-17.067 17.067c0 9.426 7.641 17.067 17.067 17.067s17.067-7.641 17.067-17.067zM375.467 635.733c0-9.426-7.641-17.067-17.067-17.067s-17.067 7.641-17.067 17.067c0 9.426 7.641 17.067 17.067 17.067s17.067-7.641 17.067-17.067zM273.067 533.333c0-9.426-7.641-17.067-17.067-17.067s-17.067 7.641-17.067 17.067c0 9.426 7.641 17.067 17.067 17.067s17.067-7.641 17.067-17.067zM375.467 533.333c0-9.426-7.641-17.067-17.067-17.067s-17.067 7.641-17.067 17.067c0 9.426 7.641 17.067 17.067 17.067s17.067-7.641 17.067-17.067zM426.667 686.933c0-9.426-7.641-17.067-17.067-17.067s-17.067 7.641-17.067 17.067c0 9.426 7.641 17.067 17.067 17.067s17.067-7.641 17.067-17.067zM529.067 686.933c0-9.426-7.641-17.067-17.067-17.067s-17.067 7.641-17.067 17.067c0 9.426 7.641 17.067 17.067 17.067s17.067-7.641 17.067-17.067zM426.667 584.533c0-9.426-7.641-17.067-17.067-17.067s-17.067 7.641-17.067 17.067c0 9.426 7.641 17.067 17.067 17.067s17.067-7.641 17.067-17.067zM529.067 584.533c0-9.426-7.641-17.067-17.067-17.067s-17.067 7.641-17.067 17.067c0 9.426 7.641 17.067 17.067 17.067s17.067-7.641 17.067-17.067zM477.867 635.733c0-9.426-7.641-17.067-17.067-17.067s-17.067 7.641-17.067 17.067c0 9.426 7.641 17.067 17.067 17.067s17.067-7.641 17.067-17.067zM580.267 635.733c0-9.426-7.641-17.067-17.067-17.067s-17.067 7.641-17.067 17.067c0 9.426 7.641 17.067 17.067 17.067s17.067-7.641 17.067-17.067zM477.867 533.333c0-9.426-7.641-17.067-17.067-17.067s-17.067 7.641-17.067 17.067c0 9.426 7.641 17.067 17.067 17.067s17.067-7.641 17.067-17.067zM580.267 533.333c0-9.426-7.641-17.067-17.067-17.067s-17.067 7.641-17.067 17.067c0 9.426 7.641 17.067 17.067 17.067s17.067-7.641 17.067-17.067zM631.467 686.933c0-9.426-7.641-17.067-17.067-17.067s-17.067 7.641-17.067 17.067c0 9.426 7.641 17.067 17.067 17.067s17.067-7.641 17.067-17.067zM733.867 686.933c0-9.426-7.641-17.067-17.067-17.067s-17.067 7.641-17.067 17.067c0 9.426 7.641 17.067 17.067 17.067s17.067-7.641 17.067-17.067zM631.467 584.533c0-9.426-7.641-17.067-17.067-17.067s-17.067 7.641-17.067 17.067c0 9.426 7.641 17.067 17.067 17.067s17.067-7.641 17.067-17.067zM733.867 584.533c0-9.426-7.641-17.067-17.067-17.067s-17.067 7.641-17.067 17.067c0 9.426 7.641 17.067 17.067 17.067s17.067-7.641 17.067-17.067zM682.667 635.733c0-9.426-7.641-17.067-17.067-17.067s-17.067 7.641-17.067 17.067c0 9.426 7.641 17.067 17.067 17.067s17.067-7.641 17.067-17.067zM785.067 635.733c0-9.426-7.641-17.067-17.067-17.067s-17.067 7.641-17.067 17.067c0 9.426 7.641 17.067 17.067 17.067s17.067-7.641 17.067-17.067zM682.667 533.333c0-9.426-7.641-17.067-17.067-17.067s-17.067 7.641-17.067 17.067c0 9.426 7.641 17.067 17.067 17.067s17.067-7.641 17.067-17.067zM785.067 533.333c0-9.426-7.641-17.067-17.067-17.067s-17.067 7.641-17.067 17.067c0 9.426 7.641 17.067 17.067 17.067s17.067-7.641 17.067-17.067zM836.267 584.533c0-9.426-7.641-17.067-17.067-17.067s-17.067 7.641-17.067 17.067c0 9.426 7.641 17.067 17.067 17.067s17.067-7.641 17.067-17.067zM887.467 533.333c0-9.426-7.641-17.067-17.067-17.067s-17.067 7.641-17.067 17.067c0 9.426 7.641 17.067 17.067 17.067s17.067-7.641 17.067-17.067zM119.467 482.133c0-9.426-7.641-17.067-17.067-17.067s-17.067 7.641-17.067 17.067c0 9.426 7.641 17.067 17.067 17.067s17.067-7.641 17.067-17.067zM170.667 430.933c0-9.426-7.641-17.067-17.067-17.067s-17.067 7.641-17.067 17.067c0 9.426 7.641 17.067 17.067 17.067s17.067-7.641 17.067-17.067zM221.867 482.133c0-9.426-7.641-17.067-17.067-17.067s-17.067 7.641-17.067 17.067c0 9.426 7.641 17.067 17.067 17.067s17.067-7.641 17.067-17.067zM324.267 482.133c0-9.426-7.641-17.067-17.067-17.067s-17.067 7.641-17.067 17.067c0 9.426 7.641 17.067 17.067 17.067s17.067-7.641 17.067-17.067zM324.267 379.733c0-9.426-7.641-17.067-17.067-17.067s-17.067 7.641-17.067 17.067c0 9.426 7.641 17.067 17.067 17.067s17.067-7.641 17.067-17.067zM221.867 379.733c0-9.426-7.641-17.067-17.067-17.067s-17.067 7.641-17.067 17.067c0 9.426 7.641 17.067 17.067 17.067s17.067-7.641 17.067-17.067zM273.067 430.933c0-9.426-7.641-17.067-17.067-17.067s-17.067 7.641-17.067 17.067c0 9.426 7.641 17.067 17.067 17.067s17.067-7.641 17.067-17.067zM375.467 430.933c0-9.426-7.641-17.067-17.067-17.067s-17.067 7.641-17.067 17.067c0 9.426 7.641 17.067 17.067 17.067s17.067-7.641 17.067-17.067zM375.467 328.533c0-9.426-7.641-17.067-17.067-17.067s-17.067 7.641-17.067 17.067c0 9.426 7.641 17.067 17.067 17.067s17.067-7.641 17.067-17.067zM273.067 328.533c0-9.426-7.641-17.067-17.067-17.067s-17.067 7.641-17.067 17.067c0 9.426 7.641 17.067 17.067 17.067s17.067-7.641 17.067-17.067zM426.667 482.133c0-9.426-7.641-17.067-17.067-17.067s-17.067 7.641-17.067 17.067c0 9.426 7.641 17.067 17.067 17.067s17.067-7.641 17.067-17.067zM529.067 482.133c0-9.426-7.641-17.067-17.067-17.067s-17.067 7.641-17.067 17.067c0 9.426 7.641 17.067 17.067 17.067s17.067-7.641 17.067-17.067zM426.667 379.733c0-9.426-7.641-17.067-17.067-17.067s-17.067 7.641-17.067 17.067c0 9.426 7.641 17.067 17.067 17.067s17.067-7.641 17.067-17.067zM426.667 277.333c0-9.426-7.641-17.067-17.067-17.067s-17.067 7.641-17.067 17.067c0 9.426 7.641 17.067 17.067 17.067s17.067-7.641 17.067-17.067zM529.067 379.733c0-9.426-7.641-17.067-17.067-17.067s-17.067 7.641-17.067 17.067c0 9.426 7.641 17.067 17.067 17.067s17.067-7.641 17.067-17.067zM477.867 430.933c0-9.426-7.641-17.067-17.067-17.067s-17.067 7.641-17.067 17.067c0 9.426 7.641 17.067 17.067 17.067s17.067-7.641 17.067-17.067zM580.267 430.933c0-9.426-7.641-17.067-17.067-17.067s-17.067 7.641-17.067 17.067c0 9.426 7.641 17.067 17.067 17.067s17.067-7.641 17.067-17.067zM477.867 328.533c0-9.426-7.641-17.067-17.067-17.067s-17.067 7.641-17.067 17.067c0 9.426 7.641 17.067 17.067 17.067s17.067-7.641 17.067-17.067zM580.267 328.533c0-9.426-7.641-17.067-17.067-17.067s-17.067 7.641-17.067 17.067c0 9.426 7.641 17.067 17.067 17.067s17.067-7.641 17.067-17.067zM631.467 482.133c0-9.426-7.641-17.067-17.067-17.067s-17.067 7.641-17.067 17.067c0 9.426 7.641 17.067 17.067 17.067s17.067-7.641 17.067-17.067zM733.867 482.133c0-9.426-7.641-17.067-17.067-17.067s-17.067 7.641-17.067 17.067c0 9.426 7.641 17.067 17.067 17.067s17.067-7.641 17.067-17.067zM631.467 379.733c0-9.426-7.641-17.067-17.067-17.067s-17.067 7.641-17.067 17.067c0 9.426 7.641 17.067 17.067 17.067s17.067-7.641 17.067-17.067zM631.467 277.333c0-9.426-7.641-17.067-17.067-17.067s-17.067 7.641-17.067 17.067c0 9.426 7.641 17.067 17.067 17.067s17.067-7.641 17.067-17.067zM733.867 379.733c0-9.426-7.641-17.067-17.067-17.067s-17.067 7.641-17.067 17.067c0 9.426 7.641 17.067 17.067 17.067s17.067-7.641 17.067-17.067zM836.267 379.733c0-9.426-7.641-17.067-17.067-17.067s-17.067 7.641-17.067 17.067c0 9.426 7.641 17.067 17.067 17.067s17.067-7.641 17.067-17.067zM682.667 430.933c0-9.426-7.641-17.067-17.067-17.067s-17.067 7.641-17.067 17.067c0 9.426 7.641 17.067 17.067 17.067s17.067-7.641 17.067-17.067zM785.067 430.933c0-9.426-7.641-17.067-17.067-17.067s-17.067 7.641-17.067 17.067c0 9.426 7.641 17.067 17.067 17.067s17.067-7.641 17.067-17.067zM682.667 328.533c0-9.426-7.641-17.067-17.067-17.067s-17.067 7.641-17.067 17.067c0 9.426 7.641 17.067 17.067 17.067s17.067-7.641 17.067-17.067zM785.067 328.533c0-9.426-7.641-17.067-17.067-17.067s-17.067 7.641-17.067 17.067c0 9.426 7.641 17.067 17.067 17.067s17.067-7.641 17.067-17.067zM836.267 482.133c0-9.426-7.641-17.067-17.067-17.067s-17.067 7.641-17.067 17.067c0 9.426 7.641 17.067 17.067 17.067s17.067-7.641 17.067-17.067zM938.667 482.133c0-9.426-7.641-17.067-17.067-17.067s-17.067 7.641-17.067 17.067c0 9.426 7.641 17.067 17.067 17.067s17.067-7.641 17.067-17.067zM887.467 430.933c0-9.426-7.641-17.067-17.067-17.067s-17.067 7.641-17.067 17.067c0 9.426 7.641 17.067 17.067 17.067s17.067-7.641 17.067-17.067zM529.067 277.333c0-9.426-7.641-17.067-17.067-17.067s-17.067 7.641-17.067 17.067c0 9.426 7.641 17.067 17.067 17.067s17.067-7.641 17.067-17.067z" />
<glyph unicode="&#xea09;" glyph-name="question" d="M448 256h128v-128h-128zM704 704c35.346 0 64-28.654 64-64v-192l-192-128h-128v64l192 128v64h-320v128h384zM512 864c-111.118 0-215.584-43.272-294.156-121.844s-121.844-183.038-121.844-294.156c0-111.118 43.272-215.584 121.844-294.156s183.038-121.844 294.156-121.844c111.118 0 215.584 43.272 294.156 121.844s121.844 183.038 121.844 294.156c0 111.118-43.272 215.584-121.844 294.156s-183.038 121.844-294.156 121.844zM512 960v0c282.77 0 512-229.23 512-512s-229.23-512-512-512c-282.77 0-512 229.23-512 512s229.23 512 512 512z" />
<glyph unicode="&#xea1c;" glyph-name="play3" d="M192 832l640-384-640-384z" />
<glyph unicode="&#xea1d;" glyph-name="pause2" d="M128 832h320v-768h-320zM576 832h320v-768h-320z" />
<glyph unicode="&#xea1e;" glyph-name="stop2" d="M128 832h768v-768h-768z" />
</font>
</defs>
</svg>
