<svg xmlns="http://www.w3.org/2000/svg" viewBox="0 0 28 28"><defs><style>.cls-1{fill:none;stroke:#80b250;stroke-width:3px;opacity:0.5;}.cls-2{fill:#949494;}</style></defs><title>checked</title><g id="Слой_2" data-name="Слой 2"><g id="Layer_1" data-name="Layer 1"><path id="Checkbox" class="cls-1" d="M5.5,1.5h17a4,4,0,0,1,4,4v17a4,4,0,0,1-4,4H5.5a4,4,0,0,1-4-4V5.5A4,4,0,0,1,5.5,1.5Z"/><path class="cls-2" d="M12.24,19.67h0a.7.7,0,0,1-.5-.21l-5.5-5.54a.7.7,0,0,1,1-1l5,5,10-10a.7.7,0,1,1,1,1L12.73,19.46a.71.71,0,0,1-.5.21Zm0,0"/></g></g></svg>