<svg xmlns="http://www.w3.org/2000/svg" viewBox="0 0 58.01 22"><defs><style>.cls-1{fill:#80b250;}.cls-2{fill:#fff;}</style></defs><title>logo_white</title><g id="Layer_2" data-name="Layer 2"><g id="Layer_1-2" data-name="Layer 1"><polygon class="cls-1" points="18.68 0 9.46 10.75 5.41 5.07 3.24 5.07 8.27 12.14 0 21.77 1.79 21.77 8.99 13.16 10.17 11.75 13.72 7.5 10.9 12.78 9.97 14.53 6.09 21.77 7.62 21.77 10.74 15.62 15.12 21.77 17.3 21.77 11.65 13.84 18.68 0"/><path class="cls-2" d="M21.35,7l.83,0a6.19,6.19,0,0,1,.93.11,7.62,7.62,0,0,1,.94.24,3.51,3.51,0,0,1,.89.44,4,4,0,0,1,1.13,1.27,3.88,3.88,0,0,1,.48,2,4.41,4.41,0,0,1-.26,1.56,4,4,0,0,1-.75,1.26,3.66,3.66,0,0,1-1.18.87,4.65,4.65,0,0,1-1.53.39l4.7,6.59h-2L21,15.27h-.42v6.46H19V7Zm-.73,6.8h1a3.66,3.66,0,0,0,2.39-.7,2.41,2.41,0,0,0,.87-2,3.13,3.13,0,0,0-.24-1.2,2,2,0,0,0-.94-1,2.77,2.77,0,0,0-1-.35,7.79,7.79,0,0,0-1.07-.07h-1Z"/><path class="cls-2" d="M36.28,12.54h1.63v9.19H36.28V20.45a4.73,4.73,0,0,1-.49.53,4,4,0,0,1-.67.5,4.17,4.17,0,0,1-.88.38,4.11,4.11,0,0,1-1.09.14,4.49,4.49,0,0,1-1.66-.31,4,4,0,0,1-1.42-.92,4.55,4.55,0,0,1-1-1.52,5.5,5.5,0,0,1-.38-2.12A5.35,5.35,0,0,1,29.07,15a4.27,4.27,0,0,1,1-1.5,4.36,4.36,0,0,1,1.42-.91,4.82,4.82,0,0,1,1.69-.31,3.91,3.91,0,0,1,1.18.17,3.85,3.85,0,0,1,.89.4,3.3,3.3,0,0,1,.64.5c.17.17.31.33.42.46Zm-3,1.2A3.06,3.06,0,0,0,32.2,14a2.54,2.54,0,0,0-1,.64,3.35,3.35,0,0,0-.66,1.07,3.9,3.9,0,0,0-.25,1.47,4.56,4.56,0,0,0,.2,1.36,3.13,3.13,0,0,0,.58,1.1,2.75,2.75,0,0,0,.95.73,3.2,3.2,0,0,0,2.55,0,2.93,2.93,0,0,0,1-.76,3.21,3.21,0,0,0,.6-1.09,4.37,4.37,0,0,0,.19-1.31,4,4,0,0,0-.27-1.53,3,3,0,0,0-.72-1.06,2.72,2.72,0,0,0-1-.62A3.16,3.16,0,0,0,33.33,13.74Z"/><path class="cls-2" d="M47.7,15.11A3.28,3.28,0,0,0,46.25,14a4.37,4.37,0,0,0-1.43-.29,3.39,3.39,0,0,0-1.23.22,3.31,3.31,0,0,0-1,.65,3.19,3.19,0,0,0-.72,1.08,4,4,0,0,0-.26,1.48,3.79,3.79,0,0,0,.27,1.48,3.39,3.39,0,0,0,.73,1.06,3.2,3.2,0,0,0,1,.65,3.31,3.31,0,0,0,1.2.22,4.05,4.05,0,0,0,1.52-.33,3.7,3.7,0,0,0,1.45-1.11v1.91a4.39,4.39,0,0,1-1.52.75,5.76,5.76,0,0,1-1.41.2,5.15,5.15,0,0,1-2-.37,4.69,4.69,0,0,1-1.56-1,4.84,4.84,0,0,1-1-1.52,5,5,0,0,1-.36-1.92,5.11,5.11,0,0,1,.36-1.94,4.68,4.68,0,0,1,1-1.54,4.79,4.79,0,0,1,1.56-1,5.07,5.07,0,0,1,2-.37,4.5,4.5,0,0,1,1.82.32,6.78,6.78,0,0,1,1,.57Z"/><path class="cls-2" d="M57.93,19.39a5.17,5.17,0,0,1-.49.77,4,4,0,0,1-.64.71,4.43,4.43,0,0,1-3,1.13,5.14,5.14,0,0,1-1.65-.27,3.81,3.81,0,0,1-1.45-.85,4.28,4.28,0,0,1-1-1.49,5.41,5.41,0,0,1-.4-2.2,5.75,5.75,0,0,1,.31-1.91,4.45,4.45,0,0,1,.88-1.55,4.11,4.11,0,0,1,1.4-1,4.38,4.38,0,0,1,1.86-.38,4,4,0,0,1,2.2.55A4.36,4.36,0,0,1,57.13,14a4.46,4.46,0,0,1,.68,1.57A6.72,6.72,0,0,1,58,17.46H50.85a3.28,3.28,0,0,0,.23,1.28,2.8,2.8,0,0,0,.63,1,2.73,2.73,0,0,0,.93.63,3,3,0,0,0,3-.44,3.47,3.47,0,0,0,.55-.6,3.32,3.32,0,0,0,.4-.66Zm-1.57-3.26a3,3,0,0,0-.94-1.74,2.61,2.61,0,0,0-1.76-.65,2.56,2.56,0,0,0-1.77.68A2.8,2.8,0,0,0,51,16.13Z"/></g></g></svg>