<?xml version="1.0" standalone="no"?>
<!DOCTYPE svg PUBLIC "-//W3C//DTD SVG 20010904//EN"
 "http://www.w3.org/TR/2001/REC-SVG-20010904/DTD/svg10.dtd">
<svg version="1.0" xmlns="http://www.w3.org/2000/svg"
 width="172.000000pt" height="172.000000pt" viewBox="0 0 172.000000 172.000000"
 preserveAspectRatio="xMidYMid meet">
<metadata>
Created by potrace 1.11, written by Peter Selinger 2001-2013
</metadata>
<g transform="translate(0.000000,172.000000) scale(0.100000,-0.100000)"
fill="#000000" stroke="none">
<path d="M760 1712 c0 -4 -16 -14 -35 -21 -52 -18 -135 -72 -178 -114 -20 -20
-54 -44 -74 -52 -21 -9 -40 -19 -43 -24 -3 -4 -23 -13 -45 -19 l-40 -10 33 -1
c42 -1 41 -13 -3 -34 -19 -9 -35 -22 -35 -28 0 -6 15 -1 34 10 52 33 65 24 21
-14 -47 -40 -39 -47 11 -9 45 35 53 25 15 -19 -45 -51 -38 -55 15 -8 51 45 66
45 57 1 -3 -17 -1 -30 4 -30 12 0 33 59 33 96 0 25 19 74 20 50 0 -4 10 -2 23
6 12 8 44 23 70 33 26 10 69 33 95 51 51 37 75 44 49 16 -15 -16 -15 -20 3
-49 23 -38 67 -63 110 -63 38 0 41 29 5 56 -14 10 -25 24 -25 31 0 6 -5 15
-12 19 -7 4 -8 3 -4 -4 4 -7 2 -12 -4 -12 -7 0 -9 7 -6 16 4 11 2 15 -7 11 -8
-3 -14 1 -14 9 0 18 4 18 38 -7 16 -11 29 -26 29 -34 0 -7 14 -25 31 -39 17
-14 26 -26 20 -26 -6 0 -8 -7 -5 -15 4 -8 1 -15 -5 -15 -8 0 -7 -6 1 -20 8
-12 24 -20 40 -20 16 0 28 -4 28 -10 0 -5 -5 -10 -11 -10 -6 0 -9 -6 -6 -12 2
-7 -3 -21 -11 -31 -15 -16 -14 -17 4 -11 17 7 17 6 5 -9 -7 -9 -10 -17 -6 -17
4 0 2 -7 -5 -15 -7 -8 -8 -15 -3 -15 5 0 9 -10 8 -22 -1 -13 2 -31 7 -40 6
-14 5 -16 -7 -12 -18 7 -45 95 -43 142 1 18 -2 35 -5 38 -6 6 -74 -40 -94 -65
-20 -23 -17 -52 5 -44 9 3 3 -8 -15 -25 -32 -30 -44 -50 -23 -37 6 3 10 1 10
-4 0 -6 -3 -11 -7 -11 -5 0 -32 -22 -62 -49 -40 -35 -51 -50 -41 -56 9 -5 11
-4 6 3 -4 7 -1 12 9 12 12 0 14 -4 5 -19 -14 -28 -12 -41 7 -41 9 0 13 -3 10
-7 -4 -3 0 -15 10 -25 25 -28 0 -22 -27 7 -12 13 -28 23 -34 22 -6 -1 -10 8
-10 21 1 12 -2 22 -7 22 -15 0 -41 -49 -35 -65 3 -9 2 -13 -4 -10 -6 3 -10 1
-10 -4 0 -6 8 -11 18 -12 14 0 14 -2 2 -7 -8 -4 -16 -20 -17 -36 -2 -28 -2
-28 19 -10 21 19 21 19 9 -3 -7 -14 -8 -23 -2 -23 6 0 8 -8 5 -17 -5 -14 -4
-15 4 -4 9 12 13 12 27 -2 9 -10 13 -17 9 -17 -4 0 0 -6 11 -13 10 -8 15 -19
12 -24 -4 -6 1 -10 11 -9 9 0 16 -5 15 -11 -2 -7 4 -13 13 -13 8 0 12 -4 9
-10 -3 -5 3 -10 14 -10 12 0 21 -4 21 -10 0 -5 6 -7 14 -4 7 3 21 -2 30 -12 9
-9 20 -14 23 -11 8 8 43 -11 43 -23 0 -6 -22 -10 -49 -10 -27 0 -64 -7 -84
-15 -46 -19 -105 -25 -111 -11 -3 7 -5 7 -5 -1 -1 -9 -8 -10 -27 -3 -14 6 -29
8 -34 5 -4 -2 -14 3 -23 13 -13 14 -13 20 -3 34 7 10 16 15 19 11 4 -3 11 7
17 22 6 15 9 30 6 32 -2 3 -7 -5 -11 -16 -6 -19 -27 -31 -24 -13 4 21 -2 42
-12 42 -5 0 -8 -4 -5 -8 2 -4 1 -14 -5 -22 -6 -11 -9 -12 -9 -2 0 8 -5 10 -12
6 -10 -6 -10 -5 -1 8 7 8 9 19 5 23 -4 5 -1 5 6 1 6 -4 12 -3 12 3 0 6 6 8 14
5 11 -4 13 0 9 15 -5 20 -7 20 -18 5 -6 -10 -17 -14 -24 -10 -7 5 -10 2 -9 -6
2 -7 -2 -12 -9 -11 -8 2 -10 -4 -6 -14 4 -9 -1 -21 -11 -28 -9 -7 -19 -21 -21
-31 -2 -11 -9 -37 -14 -59 -15 -59 -13 -102 5 -109 10 -4 13 -2 8 6 -4 7 -3 8
4 4 8 -4 12 0 12 11 0 10 5 25 10 33 16 22 1 -38 -18 -75 -8 -16 -16 -47 -16
-68 -1 -46 -20 -54 -24 -10 -3 29 -6 32 -32 28 -15 -2 -40 -11 -55 -21 -32
-21 -105 -117 -105 -138 0 -22 57 -1 99 38 l34 31 -22 -32 c-12 -17 -31 -35
-43 -39 -12 -4 -28 -13 -35 -20 -8 -7 -20 -11 -28 -7 -11 3 -19 -5 -26 -26 -7
-20 -16 -30 -25 -27 -8 3 -11 0 -7 -10 3 -8 -1 -14 -10 -14 -9 0 -19 -5 -23
-12 -5 -7 -3 -8 7 -3 12 8 12 6 0 -8 -7 -9 -17 -14 -22 -11 -5 3 -9 0 -9 -6 0
-7 -6 -10 -13 -7 -8 3 -20 1 -28 -5 -11 -8 -9 -8 5 -4 19 7 19 6 3 -12 -23
-25 -22 -33 12 -76 16 -20 32 -50 36 -66 8 -35 22 -48 62 -56 42 -8 51 11 19
43 -22 22 -25 32 -22 74 7 84 33 113 283 324 15 12 19 22 12 26 -6 4 7 15 30
25 22 10 42 23 43 28 0 6 2 25 2 41 2 51 67 61 236 37 86 -13 268 -8 302 8 31
15 62 72 53 99 -11 36 -161 176 -235 220 -41 25 -76 46 -78 47 -2 1 13 17 33
36 20 18 52 49 72 68 20 19 41 34 46 32 13 -4 47 28 47 43 0 7 -7 16 -16 19
-30 12 -8 16 24 5 24 -8 38 -8 60 4 28 13 28 13 24 -11 -4 -18 -1 -23 7 -17 8
4 11 2 10 -6 -4 -18 22 -59 37 -59 6 0 16 -6 23 -13 8 -11 5 -13 -19 -9 -17 2
-32 12 -35 23 -4 10 -11 19 -16 19 -5 0 -9 7 -9 15 0 8 -5 15 -11 15 -5 0 -7
5 -3 12 4 6 3 8 -3 5 -6 -4 -8 -19 -5 -33 3 -19 1 -25 -7 -20 -6 4 -11 14 -11
23 0 9 -3 14 -6 10 -12 -11 8 -48 24 -45 11 2 18 -5 20 -21 4 -25 43 -85 70
-108 16 -13 52 3 52 23 0 6 6 17 14 23 11 9 15 9 19 -1 4 -11 6 -10 6 0 1 7 6
10 11 7 6 -4 9 -1 8 6 -2 7 2 13 9 14 6 0 25 12 41 27 17 14 33 24 36 21 3 -4
6 -2 6 4 0 6 14 27 30 48 17 21 29 44 26 51 -3 8 1 11 9 7 8 -3 12 -10 8 -16
-9 -15 14 0 64 42 23 19 40 37 38 39 -2 3 -11 -1 -20 -8 -21 -18 -19 -7 5 20
25 29 17 40 -10 15 -28 -26 -34 -13 -9 19 28 35 19 43 -11 11 -31 -33 -47 -32
-26 1 10 14 16 30 14 36 -2 6 -17 -9 -33 -33 -27 -42 -29 -43 -38 -21 -14 31
-24 28 -23 -7 1 -16 4 -27 8 -25 4 3 6 -6 6 -18 -2 -41 -81 -108 -127 -108 -9
0 -31 -9 -48 -20 -18 -11 -33 -19 -34 -17 0 1 -2 13 -5 27 -7 41 -25 78 -40
84 -8 3 -14 11 -14 17 0 8 4 9 13 0 19 -15 27 -4 27 36 0 39 -25 83 -48 83
-13 0 -12 3 3 20 12 14 15 27 11 47 -6 22 -1 18 23 -19 17 -27 34 -48 38 -48
4 0 18 12 31 27 13 15 31 28 40 28 10 0 18 9 20 23 2 15 -2 22 -12 22 -9 0
-16 8 -16 18 0 13 2 14 9 4 16 -26 46 -9 49 27 5 54 -5 77 -45 101 -56 33
-102 16 -128 -46 -7 -18 -22 -35 -34 -39 -11 -3 -32 -29 -46 -58 -14 -29 -24
-41 -21 -28 10 50 -71 143 -118 134 -18 -4 -28 2 -42 26 -16 27 -86 71 -114
71 -5 0 -10 4 -10 8 0 16 -41 52 -60 52 -11 0 -20 -4 -20 -8z m-35 -42 c-3 -5
-12 -10 -18 -10 -7 0 -6 4 3 10 19 12 23 12 15 0z m-35 -17 c0 -5 -12 -14 -28
-20 l-27 -13 24 20 c25 22 31 24 31 13z m50 -47 c0 -7 -112 -68 -116 -63 -2 2
22 18 53 35 62 34 63 34 63 28z m260 -66 c0 -5 -2 -10 -4 -10 -3 0 -8 5 -11
10 -3 6 -1 10 4 10 6 0 11 -4 11 -10z m-390 -5 c0 -2 -10 -9 -22 -15 -22 -11
-22 -10 -4 4 21 17 26 19 26 11z m613 -52 c-8 -21 -20 -15 -18 10 4 32 4 33
14 18 5 -8 7 -20 4 -28z m-84 -123 c5 -16 8 -30 6 -30 -2 0 -10 14 -19 30 -8
17 -11 30 -6 30 4 0 13 -13 19 -30z m-8 -93 l-23 -22 17 28 c10 15 20 25 23
22 3 -3 -5 -16 -17 -28z m-35 -36 c-10 -16 -62 -29 -77 -20 -10 6 -5 9 16 9
17 0 37 5 45 10 19 12 23 12 16 1z m-253 -53 c-3 -16 -9 -28 -14 -28 -12 0
-11 4 3 35 14 31 18 29 11 -7z m154 -20 c9 -10 11 -18 6 -18 -6 0 -13 6 -16
14 -4 10 -15 13 -32 10 -16 -3 -24 -1 -21 5 10 15 45 9 63 -11z m433 -43 c0
-8 -6 -15 -13 -15 -19 0 -59 -45 -50 -56 5 -5 4 -6 -1 -2 -5 4 -17 3 -27 -3
-15 -8 -17 -6 -13 6 4 9 9 14 11 11 5 -4 52 33 77 61 14 16 16 16 16 -2z
m-544 -113 c-9 -8 -34 12 -29 24 4 12 8 11 18 -3 8 -10 12 -19 11 -21z m384
-14 c0 -5 -9 -4 -20 2 -11 6 -20 12 -20 14 0 2 9 2 20 -1 11 -3 20 -9 20 -15z
m-393 -48 c2 -13 2 -22 1 -19 -2 2 -11 14 -21 26 -18 20 -18 21 -1 19 9 -2 19
-13 21 -26z m-192 10 c3 -5 1 -10 -4 -10 -6 0 -11 5 -11 10 0 6 2 10 4 10 3 0
8 -4 11 -10z m235 -25 c0 4 9 -2 19 -14 11 -12 23 -22 27 -21 5 1 10 -4 12
-12 3 -11 2 -11 -6 0 -5 8 -13 14 -18 15 -18 1 -59 33 -62 47 -1 10 2 9 13 -4
8 -11 15 -16 15 -11z m-147 -19 c15 -14 36 -27 47 -31 11 -3 20 -11 20 -16 0
-5 6 -9 14 -9 7 0 20 -7 27 -16 12 -14 8 -14 -26 1 -22 10 -46 18 -52 18 -7 0
-13 4 -13 9 0 5 -4 7 -9 3 -10 -5 -61 43 -61 57 0 16 28 7 53 -16z m232 -35
c3 -5 1 -12 -5 -16 -5 -3 -10 1 -10 9 0 18 6 21 15 7z m-75 -45 c0 -3 -4 -8
-10 -11 -5 -3 -10 -1 -10 4 0 6 5 11 10 11 6 0 10 -2 10 -4z m-407 -62 c-4
-12 -8 -13 -14 -3 -9 15 -2 32 11 24 5 -3 6 -13 3 -21z m471 -32 c3 -5 -1 -9
-9 -9 -8 0 -12 4 -9 9 3 4 7 8 9 8 2 0 6 -4 9 -8z m-454 -23 c-7 -11 -14 -18
-17 -15 -3 3 0 12 7 21 18 21 23 19 10 -6z m254 -34 c-7 -16 -24 -21 -24 -6 0
8 7 13 27 20 1 1 0 -6 -3 -14z m56 -8 c0 -5 9 -5 20 -2 12 4 20 2 20 -5 0 -8
-11 -10 -32 -6 -18 3 -38 7 -45 8 -20 2 -6 14 16 14 12 0 21 -4 21 -9z m183 2
c-15 -15 -133 -25 -133 -11 0 5 16 8 38 6 20 -2 51 0 67 5 41 12 40 12 28 0z
m-849 -464 c3 -8 1 -15 -4 -15 -6 0 -10 7 -10 15 0 8 2 15 4 15 2 0 6 -7 10
-15z"/>
<path d="M613 903 c23 -50 63 -92 86 -93 7 0 29 -10 48 -21 39 -24 103 -42
103 -28 0 5 -8 9 -17 9 -10 0 -34 10 -53 22 -19 12 -42 23 -50 24 -8 2 -20 10
-26 18 -6 9 -15 16 -20 16 -13 0 -74 72 -74 87 0 7 -4 13 -10 13 -5 0 0 -21
13 -47z"/>
<path d="M635 790 c3 -6 -1 -13 -9 -16 -9 -3 -13 -10 -10 -15 3 -5 -2 -6 -10
-3 -9 3 -16 2 -16 -4 0 -11 49 -26 58 -17 3 3 0 5 -6 5 -17 0 -15 20 5 42 15
17 15 18 -1 18 -9 0 -14 -5 -11 -10z"/>
<path d="M666 754 c-5 -14 -4 -15 9 -4 17 14 19 20 6 20 -5 0 -12 -7 -15 -16z"/>
</g>
</svg>
