<svg xmlns="http://www.w3.org/2000/svg" viewBox="0 0 163.41 61.98"><defs><style>.cls-1{fill:#80b250;}.cls-2{fill:#505659;}</style></defs><title>logo_grey</title><g id="Layer_2" data-name="Layer 2"><g id="Layer_1-2" data-name="Layer 1"><polygon class="cls-1" points="52.62 0 26.64 30.29 15.25 14.28 9.13 14.28 23.29 34.19 0 61.34 5.05 61.34 25.34 37.06 28.64 33.11 38.66 21.14 30.7 36.01 28.08 40.92 17.16 61.34 21.46 61.34 30.27 44 42.6 61.34 48.73 61.34 32.82 38.98 52.62 0"/><path class="cls-2" d="M60.15,19.62q1.05,0,2.34.06a20.49,20.49,0,0,1,2.62.31,21.09,21.09,0,0,1,2.65.69,10,10,0,0,1,2.49,1.25,11.07,11.07,0,0,1,3.18,3.55,10.89,10.89,0,0,1,1.38,5.68,12.59,12.59,0,0,1-.75,4.4,10.92,10.92,0,0,1-2.12,3.55,10.36,10.36,0,0,1-3.31,2.44,12.54,12.54,0,0,1-4.3,1.09L77.55,61.23H71.94L59.27,43H58.09V61.23H53.47V19.62ZM58.09,38.77H61a10.44,10.44,0,0,0,6.74-2,6.85,6.85,0,0,0,2.43-5.65,9.06,9.06,0,0,0-.65-3.37,5.69,5.69,0,0,0-2.66-2.74,7.82,7.82,0,0,0-3-1,23.89,23.89,0,0,0-3-.19H58.09Z"/><path class="cls-2" d="M102.19,35.34h4.62V61.23h-4.62V57.61a10.85,10.85,0,0,1-1.36,1.5,11.88,11.88,0,0,1-1.89,1.4,10.35,10.35,0,0,1-2.48,1.06,11,11,0,0,1-3.07.41,12.76,12.76,0,0,1-4.69-.88,11.65,11.65,0,0,1-4-2.58,12.86,12.86,0,0,1-2.79-4.28,15.68,15.68,0,0,1-1-6,15.66,15.66,0,0,1,1-5.89,12,12,0,0,1,2.76-4.21,11.65,11.65,0,0,1,4-2.56,13.12,13.12,0,0,1,4.75-.87,10.85,10.85,0,0,1,3.31.46,11.57,11.57,0,0,1,2.52,1.13,9.76,9.76,0,0,1,1.8,1.4A16.29,16.29,0,0,1,102.19,39ZM93.9,38.71a8.77,8.77,0,0,0-3.19.59A7.41,7.41,0,0,0,88,41.11a9.41,9.41,0,0,0-1.85,3,11,11,0,0,0-.72,4.15A12.82,12.82,0,0,0,86,52.09a9,9,0,0,0,1.64,3.09,7.76,7.76,0,0,0,2.67,2.06A8.16,8.16,0,0,0,93.9,58a7.87,7.87,0,0,0,6.31-2.91A8.93,8.93,0,0,0,101.88,52a11.8,11.8,0,0,0,.56-3.68,11,11,0,0,0-.77-4.31,9.14,9.14,0,0,0-2-3,8,8,0,0,0-2.76-1.75A8.69,8.69,0,0,0,93.9,38.71Z"/><path class="cls-2" d="M134.38,42.58a9.25,9.25,0,0,0-4.08-3.06,12.24,12.24,0,0,0-4-.81,9.86,9.86,0,0,0-3.46.62,8.53,8.53,0,0,0-5,4.87,10.86,10.86,0,0,0-.75,4.18,10.28,10.28,0,0,0,.78,4.15,9.21,9.21,0,0,0,2.06,3,8.62,8.62,0,0,0,2.9,1.84,9.2,9.2,0,0,0,3.37.63,11.36,11.36,0,0,0,4.27-.94,10.45,10.45,0,0,0,4.09-3.12v5.36a12.75,12.75,0,0,1-4.27,2.13,16,16,0,0,1-4,.56,14.9,14.9,0,0,1-5.56-1,13.19,13.19,0,0,1-4.39-2.84,13,13,0,0,1-2.88-4.27,14,14,0,0,1-1-5.4,14.35,14.35,0,0,1,1-5.49,13,13,0,0,1,2.91-4.34,13.34,13.34,0,0,1,4.39-2.86,14.48,14.48,0,0,1,5.53-1,12.51,12.51,0,0,1,5.11.9,16.81,16.81,0,0,1,2.93,1.59Z"/><path class="cls-2" d="M163.2,54.62a18.83,18.83,0,0,1-1.37,2.18,11.94,11.94,0,0,1-1.81,2A12.46,12.46,0,0,1,151.41,62a14.79,14.79,0,0,1-4.65-.75,11.2,11.2,0,0,1-4.08-2.4,12.16,12.16,0,0,1-2.93-4.21,15.33,15.33,0,0,1-1.13-6.18,16.26,16.26,0,0,1,.88-5.4A12.81,12.81,0,0,1,142,38.68a11.5,11.5,0,0,1,3.93-2.9,12.39,12.39,0,0,1,5.24-1.06,11.47,11.47,0,0,1,6.21,1.52A12.48,12.48,0,0,1,161,39.46a12.82,12.82,0,0,1,1.9,4.43,18.51,18.51,0,0,1,.53,5.3H143.24a9.53,9.53,0,0,0,.66,3.62,8.33,8.33,0,0,0,1.77,2.77,7.81,7.81,0,0,0,2.62,1.78,8.14,8.14,0,0,0,3.19.63,8,8,0,0,0,5.3-1.88,10.36,10.36,0,0,0,1.56-1.68,11.55,11.55,0,0,0,1.12-1.87Zm-4.43-9.17a8.3,8.3,0,0,0-2.65-4.9,7.55,7.55,0,0,0-10,.06,8.14,8.14,0,0,0-2.62,4.84Z"/></g></g></svg>