<svg xmlns="http://www.w3.org/2000/svg" xmlns:xlink="http://www.w3.org/1999/xlink" viewBox="0 0 1959.57 2876.41"><defs><style>.cls-1,.cls-4{fill:none;}.cls-2{opacity:0.6;}.cls-3{clip-path:url(#clip-path);}.cls-4{stroke:#ccc;stroke-miterlimit:10;stroke-width:0.33px;}</style><clipPath id="clip-path"><rect class="cls-1" x="777" y="1187.54" width="1441" height="1160"/></clipPath></defs><title>texture2_pic</title><g id="Layer_2" data-name="Layer 2"><g id="Layer_1-2" data-name="Layer 1"><g class="cls-2"><g class="cls-3"><line class="cls-4" x1="1189.36" y1="2876.37" x2="496.69" y2="0.04"/><line class="cls-4" x1="1221.44" y1="2864.97" x2="476" y2="9.87"/><line class="cls-4" x1="1253.53" y1="2853.56" x2="455.31" y2="19.7"/><line class="cls-4" x1="1285.62" y1="2842.16" x2="434.62" y2="29.53"/><line class="cls-4" x1="1317.7" y1="2830.75" x2="413.93" y2="39.36"/><line class="cls-4" x1="1349.79" y1="2819.35" x2="393.24" y2="49.19"/><line class="cls-4" x1="1381.88" y1="2807.95" x2="372.55" y2="59.02"/><line class="cls-4" x1="1413.97" y1="2796.54" x2="351.86" y2="68.86"/><line class="cls-4" x1="1446.05" y1="2785.14" x2="331.17" y2="78.69"/><line class="cls-4" x1="1478.14" y1="2773.73" x2="310.48" y2="88.52"/><line class="cls-4" x1="1510.23" y1="2762.33" x2="289.79" y2="98.35"/><line class="cls-4" x1="1542.31" y1="2750.93" x2="269.1" y2="108.18"/><line class="cls-4" x1="1574.4" y1="2739.52" x2="248.41" y2="118.01"/><line class="cls-4" x1="1606.49" y1="2728.12" x2="227.72" y2="127.84"/><line class="cls-4" x1="1638.58" y1="2716.71" x2="207.03" y2="137.67"/><line class="cls-4" x1="1670.66" y1="2705.31" x2="186.34" y2="147.5"/><line class="cls-4" x1="1702.75" y1="2693.91" x2="165.65" y2="157.34"/><line class="cls-4" x1="1734.84" y1="2682.5" x2="144.96" y2="167.17"/><line class="cls-4" x1="1766.92" y1="2671.1" x2="124.27" y2="177"/><line class="cls-4" x1="1799.01" y1="2659.69" x2="103.58" y2="186.83"/><line class="cls-4" x1="1831.1" y1="2648.29" x2="82.89" y2="196.66"/><line class="cls-4" x1="1863.18" y1="2636.89" x2="62.2" y2="206.49"/><line class="cls-4" x1="1895.27" y1="2625.48" x2="41.51" y2="216.32"/><line class="cls-4" x1="1927.36" y1="2614.08" x2="20.82" y2="226.15"/><line class="cls-4" x1="1959.45" y1="2602.67" x2="0.13" y2="235.98"/></g></g></g></g></svg>