<svg xmlns="http://www.w3.org/2000/svg" xmlns:xlink="http://www.w3.org/1999/xlink" viewBox="0 0 4074.55 2318.07"><defs><style>.cls-1,.cls-21{fill:none;}.cls-2{fill:#fff;}.cls-3{clip-path:url(#clip-path);}.cls-4{fill:#80b250;}.cls-5{opacity:0.4;}.cls-6{clip-path:url(#clip-path-2);}.cls-7{fill:#eaeaea;}.cls-10,.cls-100,.cls-101,.cls-11,.cls-12,.cls-13,.cls-14,.cls-15,.cls-16,.cls-17,.cls-18,.cls-19,.cls-20,.cls-21,.cls-22,.cls-23,.cls-24,.cls-25,.cls-26,.cls-27,.cls-28,.cls-29,.cls-30,.cls-31,.cls-32,.cls-33,.cls-34,.cls-35,.cls-36,.cls-37,.cls-38,.cls-39,.cls-40,.cls-41,.cls-42,.cls-43,.cls-44,.cls-45,.cls-46,.cls-47,.cls-48,.cls-49,.cls-50,.cls-51,.cls-52,.cls-53,.cls-54,.cls-55,.cls-56,.cls-57,.cls-58,.cls-59,.cls-60,.cls-61,.cls-62,.cls-63,.cls-64,.cls-65,.cls-66,.cls-67,.cls-68,.cls-69,.cls-7,.cls-70,.cls-71,.cls-72,.cls-73,.cls-74,.cls-75,.cls-76,.cls-77,.cls-78,.cls-79,.cls-8,.cls-80,.cls-81,.cls-9,.cls-99{opacity:0.2;}.cls-8{fill:#e9e9e9;}.cls-9{fill:#e2e2e2;}.cls-10,.cls-85{fill:#959595;}.cls-11{fill:#d5d5d5;}.cls-12{fill:#e4e4e3;}.cls-13{fill:#c5c5c5;}.cls-14{fill:#d6d6d6;}.cls-15{fill:#f2f2f2;}.cls-16,.cls-95{fill:#d4d3d3;}.cls-17{fill:#edecec;}.cls-18{fill:#e5e5e4;}.cls-19{fill:#e3e3e3;}.cls-20{fill:#c5c4c4;}.cls-21{stroke:#f1f1f1;stroke-miterlimit:10;}.cls-22{fill:#f0f0f0;}.cls-23{fill:#b3b3b4;}.cls-24{fill:#7a7a7a;}.cls-25{fill:#d0d1d1;}.cls-26{fill:#ebebeb;}.cls-27{fill:#8a8a8a;}.cls-28{fill:#686868;}.cls-29{fill:#e7e7e7;}.cls-30{fill:#ababab;}.cls-31,.cls-94{fill:#cecece;}.cls-32{fill:#b8b8b9;}.cls-33{fill:#e1e1e1;}.cls-34,.cls-91{fill:#a2a2a2;}.cls-35{fill:#dededd;}.cls-36{fill:#efeeee;}.cls-37{fill:#e6e6e6;}.cls-38{fill:#9a9a9a;}.cls-39{fill:#a7a6a6;}.cls-40{fill:#707171;}.cls-41{fill:#a8a8a7;}.cls-42{fill:#8c8c8c;}.cls-43{fill:#939393;}.cls-44{fill:#6b6b6b;}.cls-45{fill:#d1d1d1;}.cls-46{fill:#dfdfdf;}.cls-47{fill:#aaa;}.cls-48,.cls-82{fill:#a0a0a0;}.cls-49{fill:#b4b4b5;}.cls-50{fill:#adadad;}.cls-51{fill:#999;}.cls-52,.cls-93{fill:#b9b9b9;}.cls-53,.cls-92{fill:#d7d7d6;}.cls-54{fill:#b5b5b6;}.cls-55{fill:#7d7d7d;}.cls-56{fill:#bebdbd;}.cls-57{fill:#bbb;}.cls-58{fill:#656666;}.cls-59,.cls-98{fill:#9c9c9c;}.cls-60{fill:#6a6a6a;}.cls-61{fill:#919191;}.cls-62{fill:#d2d2d2;}.cls-63,.cls-83{fill:#cdcdcd;}.cls-64{fill:#dbdada;}.cls-65{fill:#bfbfbf;}.cls-66{fill:#cfcfd0;}.cls-67,.cls-86{fill:#b1b1b1;}.cls-68{fill:gray;}.cls-69{fill:#dad9d9;}.cls-70{fill:#e8e8e8;}.cls-71{fill:#e0e0e0;}.cls-72{fill:#737374;}.cls-73{fill:#8d8d8d;}.cls-74{fill:#b8b7b8;}.cls-75,.cls-90{fill:#b7b6b7;}.cls-76{fill:#adadae;}.cls-77{fill:#d9d8d7;}.cls-78{fill:silver;}.cls-79{fill:#807f7f;}.cls-80{fill:#cccbcb;}.cls-84{fill:#6d6d6d;}.cls-87,.cls-99{fill:#898989;}.cls-88{fill:#888;}.cls-100,.cls-89{fill:#b0b0b0;}.cls-101,.cls-96{fill:#b2b2b3;}.cls-97{fill:#989898;}</style><clipPath id="clip-path"><rect id="Background" class="cls-1" x="1561.45" y="694.55" width="1440" height="900"/></clipPath><clipPath id="clip-path-2"><rect class="cls-1" x="1537.81" y="469.89" width="1478.67" height="1478.67"/></clipPath></defs><title>trangle_texture_pic</title><g id="Layer_2" data-name="Layer 2"><g id="Layer_1-2" data-name="Layer 1"><rect id="Background-2" data-name="Background" class="cls-2" x="1563.45" y="694.55" width="1440" height="900"/><g class="cls-3"><rect class="cls-4" x="1537.81" y="469.89" width="1478.67" height="1478.67"/><g class="cls-5"><g class="cls-6"><polygon class="cls-7" points="3834.87 233.3 3595.19 1.79 3355.51 233.3 3834.87 233.3"/><polygon class="cls-8" points="3355.51 233.3 3115.83 1.79 2876.15 233.3 3355.51 233.3"/><polygon class="cls-9" points="2636.47 0 2876.15 231.51 3115.83 0 2636.47 0"/><polygon class="cls-10" points="3115.83 0 3355.51 231.51 3595.19 0 3115.83 0"/><polygon class="cls-11" points="4074.55 233.3 4074.55 1.49 3834.87 233.3 4074.55 233.3"/><polygon class="cls-12" points="3595.19 0 3834.87 231.51 4074.55 0 3595.19 0"/><polygon class="cls-8" points="2876.15 233.3 2636.47 1.79 2396.79 233.3 2876.15 233.3"/><polygon class="cls-13" points="2396.79 233.3 2157.11 1.79 1917.43 233.3 2396.79 233.3"/><polygon class="cls-13" points="1677.76 0 1917.43 231.51 2157.11 0 1677.76 0"/><polygon class="cls-14" points="2157.11 0 2396.79 231.51 2636.47 0 2157.11 0"/><polygon class="cls-15" points="1917.43 233.3 1677.76 1.79 1438.08 233.3 1917.43 233.3"/><polygon class="cls-11" points="1438.08 233.3 1198.4 1.79 958.72 233.3 1438.08 233.3"/><polygon class="cls-16" points="719.04 0 958.72 231.51 1198.4 0 719.04 0"/><polygon class="cls-17" points="1198.4 0 1438.08 231.51 1677.76 0 1198.4 0"/><polygon class="cls-13" points="958.72 233.3 719.04 1.79 479.36 233.3 958.72 233.3"/><polygon class="cls-18" points="479.36 233.3 239.68 1.79 0 233.3 479.36 233.3"/><polygon class="cls-19" points="0 0 0 233 239.68 0 0 0"/><polygon class="cls-20" points="239.68 0 479.36 231.51 719.04 0 239.68 0"/><polygon class="cls-21" points="3595.19 464.96 3355.51 233.45 3115.83 464.96 3595.19 464.96"/><polygon class="cls-22" points="3115.83 463.32 2876.15 231.81 2636.47 463.32 3115.83 463.32"/><polygon class="cls-7" points="2396.79 233.3 2636.47 464.81 2876.15 233.3 2396.79 233.3"/><polygon class="cls-21" points="2876.15 231.66 3115.83 463.17 3355.51 231.66 2876.15 231.66"/><polygon class="cls-8" points="3595.19 463.32 3355.51 231.81 3115.83 463.32 3595.19 463.32"/><polygon class="cls-13" points="2876.15 233.3 3115.83 464.81 3355.51 233.3 2876.15 233.3"/><polygon class="cls-23" points="4074.55 463.32 3834.87 231.81 3595.19 463.32 4074.55 463.32"/><polygon class="cls-24" points="3355.51 233.3 3595.19 464.81 3834.87 233.3 3355.51 233.3"/><polygon class="cls-25" points="3834.87 233.3 4074.55 464.51 4074.55 233.3 3834.87 233.3"/><polygon class="cls-26" points="2636.47 463.32 2396.79 231.81 2157.11 463.32 2636.47 463.32"/><polygon class="cls-27" points="2157.11 463.32 1917.43 231.81 1677.76 463.32 2157.11 463.32"/><polygon class="cls-28" points="1438.08 233.3 1677.76 464.81 1917.43 233.3 1438.08 233.3"/><polygon class="cls-29" points="1917.43 233.3 2157.11 464.81 2396.79 233.3 1917.43 233.3"/><polygon class="cls-13" points="1677.76 463.32 1438.08 231.81 1198.4 463.32 1677.76 463.32"/><polygon class="cls-15" points="1198.4 463.32 958.72 231.81 719.04 463.32 1198.4 463.32"/><polygon class="cls-26" points="479.36 233.3 719.04 464.81 958.72 233.3 479.36 233.3"/><polygon class="cls-26" points="958.72 233.3 1198.4 464.81 1438.08 233.3 958.72 233.3"/><polygon class="cls-30" points="719.04 463.32 479.36 231.81 239.68 463.32 719.04 463.32"/><polygon class="cls-31" points="239.68 463.32 0 233 0 463.32 239.68 463.32"/><polygon class="cls-26" points="0 233.3 239.68 464.81 479.36 233.3 0 233.3"/><polygon class="cls-12" points="3834.87 696.62 3595.19 465.11 3355.51 696.62 3834.87 696.62"/><polygon class="cls-22" points="3115.83 463.32 3355.51 694.82 3595.19 463.32 3115.83 463.32"/><polygon class="cls-32" points="4074.55 696.62 4074.55 464.51 3834.87 696.62 4074.55 696.62"/><polygon class="cls-33" points="3595.19 463.32 3834.87 694.82 4074.55 463.32 3595.19 463.32"/><polygon class="cls-34" points="3355.51 696.62 3115.83 465.11 2876.15 696.62 3355.51 696.62"/><polygon class="cls-26" points="2876.15 696.62 2636.47 465.11 2396.79 696.62 2876.15 696.62"/><polygon class="cls-35" points="2157.11 463.32 2396.79 694.82 2636.47 463.32 2157.11 463.32"/><polygon class="cls-22" points="2636.47 463.32 2876.15 694.82 3115.83 463.32 2636.47 463.32"/><polygon class="cls-11" points="2396.79 696.62 2157.11 465.11 1917.43 696.62 2396.79 696.62"/><polygon class="cls-36" points="1917.43 696.62 1677.76 465.11 1438.08 696.62 1917.43 696.62"/><polygon class="cls-8" points="1198.4 463.32 1438.08 694.82 1677.76 463.32 1198.4 463.32"/><polygon class="cls-19" points="1677.76 463.32 1917.43 694.82 2157.11 463.32 1677.76 463.32"/><polygon class="cls-37" points="1438.08 696.62 1198.4 465.11 958.72 696.62 1438.08 696.62"/><polygon class="cls-30" points="958.72 696.62 719.04 465.11 479.36 696.62 958.72 696.62"/><polygon class="cls-26" points="239.68 463.32 479.36 694.82 719.04 463.32 239.68 463.32"/><polygon class="cls-12" points="719.04 463.32 958.72 694.82 1198.4 463.32 719.04 463.32"/><polygon class="cls-38" points="479.36 696.62 239.68 465.11 0 696.62 479.36 696.62"/><polygon class="cls-39" points="0 463.32 0 696.02 239.68 463.32 0 463.32"/><polygon class="cls-40" points="2876.15 696.62 3115.83 928.13 3355.51 696.62 2876.15 696.62"/><polygon class="cls-41" points="3595.19 926.63 3355.51 695.12 3115.83 926.63 3595.19 926.63"/><polygon class="cls-33" points="4074.55 926.63 3834.87 695.12 3595.19 926.63 4074.55 926.63"/><polygon class="cls-42" points="3355.51 696.62 3595.19 928.13 3834.87 696.62 3355.51 696.62"/><polygon class="cls-43" points="3834.87 696.62 4074.55 927.53 4074.55 696.62 3834.87 696.62"/><polygon class="cls-44" points="3115.83 926.63 2876.15 695.12 2636.47 926.63 3115.83 926.63"/><polygon class="cls-9" points="2636.47 926.63 2396.79 695.12 2157.11 926.63 2636.47 926.63"/><polygon class="cls-45" points="1917.43 696.62 2157.11 928.13 2396.79 696.62 1917.43 696.62"/><polygon class="cls-35" points="2396.79 696.62 2636.47 928.13 2876.15 696.62 2396.79 696.62"/><polygon class="cls-46" points="2157.11 926.63 1917.43 695.12 1677.76 926.63 2157.11 926.63"/><polygon class="cls-31" points="1677.76 926.63 1438.08 695.12 1198.4 926.63 1677.76 926.63"/><polygon class="cls-39" points="958.72 696.62 1198.4 928.13 1438.08 696.62 958.72 696.62"/><polygon class="cls-9" points="1438.08 696.62 1677.76 928.13 1917.43 696.62 1438.08 696.62"/><polygon class="cls-38" points="1198.4 926.63 958.72 695.12 719.04 926.63 1198.4 926.63"/><polygon class="cls-47" points="719.04 926.63 479.36 695.12 239.68 926.63 719.04 926.63"/><polygon class="cls-48" points="0 696.62 239.68 928.13 479.36 696.62 0 696.62"/><polygon class="cls-49" points="479.36 696.62 719.04 928.13 958.72 696.62 479.36 696.62"/><polygon class="cls-50" points="239.68 926.63 0 696.02 0 926.63 239.68 926.63"/><polygon class="cls-19" points="3834.87 1159.93 3595.19 928.42 3355.51 1159.93 3834.87 1159.93"/><polygon class="cls-45" points="3115.83 926.63 3355.51 1158.14 3595.19 926.63 3115.83 926.63"/><polygon class="cls-51" points="4074.55 1159.93 4074.55 927.53 3834.87 1159.93 4074.55 1159.93"/><polygon class="cls-41" points="3595.19 926.63 3834.87 1158.14 4074.55 926.63 3595.19 926.63"/><polygon class="cls-14" points="3355.51 1159.93 3115.83 928.42 2876.15 1159.93 3355.51 1159.93"/><polygon class="cls-23" points="2636.47 926.63 2876.15 1158.14 3115.83 926.63 2636.47 926.63"/><polygon class="cls-52" points="2876.15 1159.93 2636.47 928.42 2396.79 1159.93 2876.15 1159.93"/><polygon class="cls-28" points="2396.79 1159.93 2157.11 928.42 1917.43 1159.93 2396.79 1159.93"/><polygon class="cls-27" points="1677.76 926.63 1917.43 1158.14 2157.11 926.63 1677.76 926.63"/><polygon class="cls-9" points="2157.11 926.63 2396.79 1158.14 2636.47 926.63 2157.11 926.63"/><polygon class="cls-13" points="1917.43 1159.93 1677.76 928.42 1438.08 1159.93 1917.43 1159.93"/><polygon class="cls-53" points="1438.08 1159.93 1198.4 928.42 958.72 1159.93 1438.08 1159.93"/><polygon class="cls-54" points="719.04 926.63 958.72 1158.14 1198.4 926.63 719.04 926.63"/><polygon class="cls-12" points="1198.4 926.63 1438.08 1158.14 1677.76 926.63 1198.4 926.63"/><polygon class="cls-55" points="958.72 1159.93 719.04 928.42 479.36 1159.93 958.72 1159.93"/><polygon class="cls-56" points="479.36 1159.93 239.68 928.42 0 1159.93 479.36 1159.93"/><polygon class="cls-45" points="0 926.63 0 1159.04 239.68 926.63 0 926.63"/><polygon class="cls-24" points="239.68 926.63 479.36 1158.14 719.04 926.63 239.68 926.63"/><polygon class="cls-29" points="2876.15 1159.93 3115.83 1391.44 3355.51 1159.93 2876.15 1159.93"/><polygon class="cls-11" points="2396.79 1159.93 2636.47 1391.44 2876.15 1159.93 2396.79 1159.93"/><polygon class="cls-21" points="3595.19 1391.59 3355.51 1160.08 3115.83 1391.59 3595.19 1391.59"/><polygon class="cls-57" points="3595.19 1389.95 3355.51 1158.44 3115.83 1389.95 3595.19 1389.95"/><polygon class="cls-58" points="4074.55 1389.95 3834.87 1158.44 3595.19 1389.95 4074.55 1389.95"/><polygon class="cls-59" points="3355.51 1159.93 3595.19 1391.44 3834.87 1159.93 3355.51 1159.93"/><polygon class="cls-60" points="3834.87 1159.93 4074.55 1390.54 4074.55 1159.93 3834.87 1159.93"/><polygon class="cls-61" points="3115.83 1389.95 2876.15 1158.44 2636.47 1389.95 3115.83 1389.95"/><polygon class="cls-62" points="2636.47 1389.95 2396.79 1158.44 2157.11 1389.95 2636.47 1389.95"/><polygon class="cls-56" points="2157.11 1389.95 1917.43 1158.44 1677.76 1389.95 2157.11 1389.95"/><polygon class="cls-56" points="1438.08 1159.93 1677.76 1391.44 1917.43 1159.93 1438.08 1159.93"/><polygon class="cls-63" points="1917.43 1159.93 2157.11 1391.44 2396.79 1159.93 1917.43 1159.93"/><polygon class="cls-37" points="1677.76 1389.95 1438.08 1158.44 1198.4 1389.95 1677.76 1389.95"/><polygon class="cls-31" points="1198.4 1389.95 958.72 1158.44 719.04 1389.95 1198.4 1389.95"/><polygon class="cls-64" points="479.36 1159.93 719.04 1391.44 958.72 1159.93 479.36 1159.93"/><polygon class="cls-17" points="958.72 1159.93 1198.4 1391.44 1438.08 1159.93 958.72 1159.93"/><polygon class="cls-14" points="719.04 1389.95 479.36 1158.44 239.68 1389.95 719.04 1389.95"/><polygon class="cls-47" points="239.68 1389.95 0 1159.04 0 1389.95 239.68 1389.95"/><polygon class="cls-31" points="0 1159.93 239.68 1391.44 479.36 1159.93 0 1159.93"/><polygon class="cls-65" points="3834.87 1623.25 3595.19 1391.74 3355.51 1623.25 3834.87 1623.25"/><polygon class="cls-30" points="3115.83 1389.95 3355.51 1621.45 3595.19 1389.95 3115.83 1389.95"/><polygon class="cls-66" points="4074.55 1623.25 4074.55 1390.54 3834.87 1623.25 4074.55 1623.25"/><polygon class="cls-67" points="3595.19 1389.95 3834.87 1621.45 4074.55 1389.95 3595.19 1389.95"/><polygon class="cls-68" points="3355.51 1623.25 3115.83 1391.74 2876.15 1623.25 3355.51 1623.25"/><polygon class="cls-29" points="2636.47 1389.95 2876.15 1621.45 3115.83 1389.95 2636.47 1389.95"/><polygon class="cls-52" points="2876.15 1623.25 2636.47 1391.74 2396.79 1623.25 2876.15 1623.25"/><polygon class="cls-69" points="2157.11 1389.95 2396.79 1621.45 2636.47 1389.95 2157.11 1389.95"/><polygon class="cls-70" points="2396.79 1623.25 2157.11 1391.74 1917.43 1623.25 2396.79 1623.25"/><polygon class="cls-71" points="1917.43 1623.25 1677.76 1391.74 1438.08 1623.25 1917.43 1623.25"/><polygon class="cls-47" points="1198.4 1389.95 1438.08 1621.45 1677.76 1389.95 1198.4 1389.95"/><polygon class="cls-15" points="1677.76 1389.95 1917.43 1621.45 2157.11 1389.95 1677.76 1389.95"/><polygon class="cls-55" points="1438.08 1623.25 1198.4 1391.74 958.72 1623.25 1438.08 1623.25"/><polygon class="cls-72" points="958.72 1623.25 719.04 1391.74 479.36 1623.25 958.72 1623.25"/><polygon class="cls-70" points="239.68 1389.95 479.36 1621.45 719.04 1389.95 239.68 1389.95"/><polygon class="cls-71" points="719.04 1389.95 958.72 1621.45 1198.4 1389.95 719.04 1389.95"/><polygon class="cls-73" points="479.36 1623.25 239.68 1391.74 0 1623.25 479.36 1623.25"/><polygon class="cls-38" points="0 1389.95 0 1622.05 239.68 1389.95 0 1389.95"/><polygon class="cls-74" points="2876.15 1623.25 3115.83 1854.76 3355.51 1623.25 2876.15 1623.25"/><polygon class="cls-71" points="2396.79 1623.25 2636.47 1854.76 2876.15 1623.25 2396.79 1623.25"/><polygon class="cls-10" points="3595.19 1853.26 3355.51 1621.75 3115.83 1853.26 3595.19 1853.26"/><polygon class="cls-10" points="3595.19 1853.26 3355.51 1621.75 3115.83 1853.26 3595.19 1853.26"/><polygon class="cls-75" points="4074.55 1853.26 3834.87 1621.75 3595.19 1853.26 4074.55 1853.26"/><polygon class="cls-38" points="3355.51 1623.25 3595.19 1854.76 3834.87 1623.25 3355.51 1623.25"/><polygon class="cls-76" points="3834.87 1623.25 4074.55 1853.56 4074.55 1623.25 3834.87 1623.25"/><polygon class="cls-76" points="3834.87 1623.25 4074.55 1853.56 4074.55 1623.25 3834.87 1623.25"/><polygon class="cls-77" points="3115.83 1853.26 2876.15 1621.75 2636.47 1853.26 3115.83 1853.26"/><polygon class="cls-78" points="2636.47 1853.26 2396.79 1621.75 2157.11 1853.26 2636.47 1853.26"/><polygon class="cls-76" points="1917.43 1623.25 2157.11 1854.76 2396.79 1623.25 1917.43 1623.25"/><polygon class="cls-70" points="2157.11 1853.26 1917.43 1621.75 1677.76 1853.26 2157.11 1853.26"/><polygon class="cls-66" points="1677.76 1853.26 1438.08 1621.75 1198.4 1853.26 1677.76 1853.26"/><polygon class="cls-56" points="958.72 1623.25 1198.4 1854.76 1438.08 1623.25 958.72 1623.25"/><polygon class="cls-79" points="1438.08 1623.25 1677.76 1854.76 1917.43 1623.25 1438.08 1623.25"/><polygon class="cls-28" points="1198.4 1853.26 958.72 1621.75 719.04 1853.26 1198.4 1853.26"/><polygon class="cls-45" points="719.04 1853.26 479.36 1621.75 239.68 1853.26 719.04 1853.26"/><polygon class="cls-45" points="0 1623.25 239.68 1854.76 479.36 1623.25 0 1623.25"/><polygon class="cls-55" points="479.36 1623.25 719.04 1854.76 958.72 1623.25 479.36 1623.25"/><polygon class="cls-80" points="239.68 1853.26 0 1622.05 0 1853.26 239.68 1853.26"/><g class="cls-81"><polygon class="cls-82" points="3834.87 2086.56 3595.19 1855.06 3355.51 2086.56 3834.87 2086.56"/><polygon class="cls-83" points="3115.83 1853.26 3355.51 2084.77 3595.19 1853.26 3115.83 1853.26"/><polygon class="cls-84" points="4074.55 2086.56 4074.55 1853.56 3834.87 2086.56 4074.55 2086.56"/><polygon class="cls-85" points="3595.19 1853.26 3834.87 2084.77 4074.55 1853.26 3595.19 1853.26"/><polygon class="cls-86" points="3355.51 2086.56 3115.83 1855.06 2876.15 2086.56 3355.51 2086.56"/><polygon class="cls-87" points="2636.47 1853.26 2876.15 2084.77 3115.83 1853.26 2636.47 1853.26"/><polygon class="cls-88" points="2876.15 2086.56 2636.47 1855.06 2396.79 2086.56 2876.15 2086.56"/><polygon class="cls-89" points="2157.11 1853.26 2396.79 2084.77 2636.47 1853.26 2157.11 1853.26"/><polygon class="cls-90" points="2396.79 2086.56 2157.11 1855.06 1917.43 2086.56 2396.79 2086.56"/><polygon class="cls-91" points="1677.76 1853.26 1917.43 2084.77 2157.11 1853.26 1677.76 1853.26"/><polygon class="cls-92" points="1917.43 2086.56 1677.76 1855.06 1438.08 2086.56 1917.43 2086.56"/><polygon class="cls-93" points="1438.08 2086.56 1198.4 1855.06 958.72 2086.56 1438.08 2086.56"/><polygon class="cls-94" points="719.04 1853.26 958.72 2084.77 1198.4 1853.26 719.04 1853.26"/><polygon class="cls-95" points="1198.4 1853.26 1438.08 2084.77 1677.76 1853.26 1198.4 1853.26"/><polygon class="cls-96" points="958.72 2086.56 719.04 1855.06 479.36 2086.56 958.72 2086.56"/><polygon class="cls-97" points="479.36 2086.56 239.68 1855.06 0 2086.56 479.36 2086.56"/><polygon class="cls-97" points="0 1853.26 0 2085.07 239.68 1853.26 0 1853.26"/><polygon class="cls-98" points="239.68 1853.26 479.36 2084.77 719.04 1853.26 239.68 1853.26"/></g><polygon class="cls-99" points="2876.15 2086.56 3115.83 2318.07 3355.51 2086.56 2876.15 2086.56"/><polygon class="cls-38" points="2396.79 2086.56 2636.47 2318.07 2876.15 2086.56 2396.79 2086.56"/><polygon class="cls-100" points="3595.19 2316.58 3355.51 2085.07 3115.83 2316.58 3595.19 2316.58"/><polygon class="cls-71" points="3595.19 2316.58 3355.51 2085.07 3115.83 2316.58 3595.19 2316.58"/><polygon class="cls-10" points="4074.55 2316.58 3834.87 2085.07 3595.19 2316.58 4074.55 2316.58"/><polygon class="cls-63" points="3355.51 2086.56 3595.19 2318.07 3834.87 2086.56 3355.51 2086.56"/><polygon class="cls-100" points="3834.87 2086.56 4074.55 2316.58 4074.55 2086.56 3834.87 2086.56"/><polygon class="cls-71" points="3834.87 2086.56 4074.55 2316.58 4074.55 2086.56 3834.87 2086.56"/><polygon class="cls-74" points="3115.83 2316.58 2876.15 2085.07 2636.47 2316.58 3115.83 2316.58"/><polygon class="cls-78" points="2636.47 2316.58 2396.79 2085.07 2157.11 2316.58 2636.47 2316.58"/><polygon class="cls-34" points="1917.43 2086.56 2157.11 2318.07 2396.79 2086.56 1917.43 2086.56"/><polygon class="cls-75" points="2157.11 2316.58 1917.43 2085.07 1677.76 2316.58 2157.11 2316.58"/><polygon class="cls-53" points="1438.08 2086.56 1677.76 2318.07 1917.43 2086.56 1438.08 2086.56"/><polygon class="cls-34" points="1677.76 2316.58 1438.08 2085.07 1198.4 2316.58 1677.76 2316.58"/><polygon class="cls-31" points="1198.4 2316.58 958.72 2085.07 719.04 2316.58 1198.4 2316.58"/><polygon class="cls-59" points="479.36 2086.56 719.04 2318.07 958.72 2086.56 479.36 2086.56"/><polygon class="cls-61" points="958.72 2086.56 1198.4 2318.07 1438.08 2086.56 958.72 2086.56"/><polygon class="cls-101" points="719.04 2316.58 479.36 2085.07 239.68 2316.58 719.04 2316.58"/><polygon class="cls-38" points="239.68 2316.58 0 2085.07 0 2316.58 239.68 2316.58"/><polygon class="cls-80" points="0 2086.56 239.68 2318.07 479.36 2086.56 0 2086.56"/></g></g></g></g></g></svg>