<svg xmlns="http://www.w3.org/2000/svg" viewBox="0 0 129.19 49"><defs><style>.cls-1{fill:#80b250;}.cls-2{fill:#505659;}</style></defs><title>logo_sm2</title><g id="Слой_2" data-name="Слой 2"><g id="Layer_1" data-name="Layer 1"><polygon class="cls-1" points="41.6 0 21.06 23.95 12.06 11.29 7.22 11.29 18.42 27.03 0 48.49 3.99 48.49 20.03 29.3 22.65 26.18 30.56 16.71 24.27 28.47 22.2 32.35 13.57 48.49 16.96 48.49 23.93 34.78 33.68 48.49 38.52 48.49 25.95 30.82 41.6 0"/><path class="cls-2" d="M47.55,15.51q.84,0,1.85,0a15.57,15.57,0,0,1,2.07.25,15.8,15.8,0,0,1,2.1.54,7.94,7.94,0,0,1,2,1,8.82,8.82,0,0,1,2.52,2.81,8.65,8.65,0,0,1,1.08,4.49,10,10,0,0,1-.59,3.48,8.64,8.64,0,0,1-1.68,2.81,8.05,8.05,0,0,1-2.61,1.92,9.79,9.79,0,0,1-3.4.86l10.46,14.7H56.87L46.86,34h-.94v14.4H42.28V15.51ZM45.92,30.65h2.32a8.25,8.25,0,0,0,5.33-1.55,5.4,5.4,0,0,0,1.92-4.46A7.06,7.06,0,0,0,55,22a4.5,4.5,0,0,0-2.1-2.17A6.3,6.3,0,0,0,50.54,19a19.71,19.71,0,0,0-2.39-.15H45.92Z"/><path class="cls-2" d="M80.8,27.94h3.65V48.41H80.8V45.55a8.92,8.92,0,0,1-1.08,1.18,9.13,9.13,0,0,1-1.5,1.11,8.22,8.22,0,0,1-2,.84,8.68,8.68,0,0,1-2.43.32,10.19,10.19,0,0,1-3.7-.69,9.12,9.12,0,0,1-3.16-2,10.07,10.07,0,0,1-2.21-3.38,12.37,12.37,0,0,1-.83-4.73,12.35,12.35,0,0,1,.81-4.66,9.56,9.56,0,0,1,2.18-3.33,9.33,9.33,0,0,1,3.16-2,10.34,10.34,0,0,1,3.75-.69,8.58,8.58,0,0,1,2.62.37,9,9,0,0,1,2,.89,7.83,7.83,0,0,1,1.42,1.11,11.71,11.71,0,0,1,.93,1ZM74.24,30.6a6.87,6.87,0,0,0-2.52.47,5.73,5.73,0,0,0-2.11,1.43,7.44,7.44,0,0,0-1.47,2.37,8.78,8.78,0,0,0-.56,3.28,10.07,10.07,0,0,0,.44,3,7.11,7.11,0,0,0,1.3,2.44,6.07,6.07,0,0,0,2.11,1.63,6.5,6.5,0,0,0,2.82.59,6.25,6.25,0,0,0,5-2.29,7.21,7.21,0,0,0,1.32-2.44A9.51,9.51,0,0,0,81,38.2a8.64,8.64,0,0,0-.61-3.4,7.11,7.11,0,0,0-1.59-2.37A6.31,6.31,0,0,0,76.61,31,6.8,6.8,0,0,0,74.24,30.6Z"/><path class="cls-2" d="M106.24,33.66A7.33,7.33,0,0,0,103,31.24a9.67,9.67,0,0,0-3.18-.64,7.7,7.7,0,0,0-2.74.49,6.73,6.73,0,0,0-3.92,3.85,8.59,8.59,0,0,0-.59,3.3,8.09,8.09,0,0,0,.62,3.28,7.21,7.21,0,0,0,1.63,2.37,6.87,6.87,0,0,0,2.29,1.46,7.36,7.36,0,0,0,2.66.49,8.92,8.92,0,0,0,3.38-.74,8.31,8.31,0,0,0,3.23-2.47v4.24A10,10,0,0,1,103,48.56a12.48,12.48,0,0,1-3.13.44,11.65,11.65,0,0,1-4.39-.81A10.46,10.46,0,0,1,92,45.94a10.19,10.19,0,0,1-2.27-3.38,11,11,0,0,1-.81-4.27A11.28,11.28,0,0,1,89.75,34,10.23,10.23,0,0,1,92,30.53a10.61,10.61,0,0,1,3.48-2.27,11.46,11.46,0,0,1,4.36-.81,9.86,9.86,0,0,1,4,.72,13.71,13.71,0,0,1,2.32,1.26Z"/><path class="cls-2" d="M129,43.18a14.88,14.88,0,0,1-1.08,1.73,9.46,9.46,0,0,1-1.43,1.58A9.85,9.85,0,0,1,119.71,49a11.68,11.68,0,0,1-3.67-.59,8.84,8.84,0,0,1-3.23-1.9,9.73,9.73,0,0,1-2.32-3.33,12.11,12.11,0,0,1-.89-4.88,13,13,0,0,1,.69-4.27,10.17,10.17,0,0,1,2-3.45,9.22,9.22,0,0,1,3.11-2.29,9.81,9.81,0,0,1,4.14-.84,9,9,0,0,1,4.91,1.21,9.92,9.92,0,0,1,2.84,2.54,10.11,10.11,0,0,1,1.5,3.5,14.69,14.69,0,0,1,.42,4.19H113.25a7.57,7.57,0,0,0,.52,2.86,6.7,6.7,0,0,0,1.41,2.19,6.16,6.16,0,0,0,2.07,1.41,6.48,6.48,0,0,0,2.52.49,6.34,6.34,0,0,0,4.19-1.48A7.9,7.9,0,0,0,125.18,43a8.79,8.79,0,0,0,.89-1.48Zm-3.5-7.25a6.56,6.56,0,0,0-2.1-3.87,6,6,0,0,0-7.87,0,6.43,6.43,0,0,0-2.07,3.82Z"/></g></g></svg>