<svg id="Layer_1" data-name="Layer 1" xmlns="http://www.w3.org/2000/svg" xmlns:xlink="http://www.w3.org/1999/xlink" viewBox="0 0 1441 982"><defs><style>.cls-1,.cls-3{fill:none;}.cls-2{clip-path:url(#clip-path);}.cls-3{stroke:#ccc;stroke-miterlimit:10;stroke-width:0.33px;}</style><clipPath id="clip-path"><rect class="cls-1" width="1441" height="982"/></clipPath></defs><title>Artboard 1</title><g class="cls-2"><line class="cls-3" x1="412.35" y1="1429.69" x2="-280.31" y2="-1005.28"/><line class="cls-3" x1="444.44" y1="1420.03" x2="-301" y2="-996.96"/><line class="cls-3" x1="476.53" y1="1410.38" x2="-321.69" y2="-988.63"/><line class="cls-3" x1="508.62" y1="1400.72" x2="-342.38" y2="-980.31"/><line class="cls-3" x1="540.7" y1="1391.07" x2="-363.07" y2="-971.99"/><line class="cls-3" x1="572.79" y1="1381.42" x2="-383.76" y2="-963.67"/><line class="cls-3" x1="604.88" y1="1371.76" x2="-404.45" y2="-955.34"/><line class="cls-3" x1="636.96" y1="1362.11" x2="-425.14" y2="-947.02"/><line class="cls-3" x1="669.05" y1="1352.45" x2="-445.83" y2="-938.7"/><line class="cls-3" x1="701.14" y1="1342.8" x2="-466.52" y2="-930.38"/><line class="cls-3" x1="733.22" y1="1333.14" x2="-487.21" y2="-922.05"/><line class="cls-3" x1="765.31" y1="1323.49" x2="-507.9" y2="-913.73"/><line class="cls-3" x1="797.4" y1="1313.84" x2="-528.59" y2="-905.41"/><line class="cls-3" x1="829.49" y1="1304.18" x2="-549.28" y2="-897.09"/><line class="cls-3" x1="861.57" y1="1294.53" x2="-569.98" y2="-888.76"/><line class="cls-3" x1="893.66" y1="1284.87" x2="-590.67" y2="-880.44"/><line class="cls-3" x1="925.75" y1="1275.22" x2="-611.36" y2="-872.12"/><line class="cls-3" x1="957.83" y1="1265.57" x2="-632.05" y2="-863.8"/><line class="cls-3" x1="989.92" y1="1255.91" x2="-652.74" y2="-855.47"/><line class="cls-3" x1="1022.01" y1="1246.26" x2="-673.43" y2="-847.15"/><line class="cls-3" x1="1054.1" y1="1236.6" x2="-694.12" y2="-838.83"/><line class="cls-3" x1="1086.18" y1="1226.95" x2="-714.81" y2="-830.51"/><line class="cls-3" x1="1118.27" y1="1217.3" x2="-735.5" y2="-822.18"/><line class="cls-3" x1="1150.36" y1="1207.64" x2="-756.19" y2="-813.86"/><line class="cls-3" x1="1182.44" y1="1197.99" x2="-776.88" y2="-805.54"/></g></svg>