<?xml version="1.0" standalone="no"?>
<!DOCTYPE svg PUBLIC "-//W3C//DTD SVG 20010904//EN"
 "http://www.w3.org/TR/2001/REC-SVG-20010904/DTD/svg10.dtd">
<svg version="1.0" xmlns="http://www.w3.org/2000/svg"
 width="192.000000pt" height="192.000000pt" viewBox="0 0 192.000000 192.000000"
 preserveAspectRatio="xMidYMid meet">
<metadata>
Created by potrace 1.11, written by Peter Selinger 2001-2013
</metadata>
<g transform="translate(0.000000,192.000000) scale(0.100000,-0.100000)"
fill="#000000" stroke="none">
<path d="M956 1804 c-36 -13 -66 -41 -93 -88 -11 -19 -12 -16 -13 26 0 51 -18
66 -65 54 -27 -7 -81 -83 -90 -129 -4 -18 -14 -40 -23 -49 -19 -22 -10 -117
15 -159 15 -25 16 -33 4 -62 -20 -50 -51 -169 -51 -198 0 -35 -11 -43 -27 -19
-18 25 -37 25 -142 0 -98 -24 -153 -61 -172 -118 -7 -20 -19 -43 -27 -51 -17
-17 -11 -89 9 -101 24 -15 -3 -28 -84 -40 -46 -7 -90 -18 -98 -24 -9 -7 -20
-45 -27 -96 -7 -47 -24 -152 -37 -235 -35 -214 -38 -246 -25 -279 12 -33 90
-112 119 -121 11 -3 60 3 108 15 48 11 103 23 122 26 108 18 186 36 205 49 10
8 23 12 30 11 6 -2 8 -1 4 1 -20 11 -5 22 15 12 19 -11 20 -10 10 3 -10 12
-10 15 0 15 6 1 122 19 257 42 135 23 259 44 275 47 17 2 39 8 50 11 11 3 31
7 45 8 14 1 51 6 84 10 56 7 59 6 82 -20 28 -33 40 -33 180 -9 54 9 106 17
114 18 8 0 20 7 26 15 7 8 16 11 24 6 8 -5 11 -4 7 3 -8 12 23 72 37 72 5 0 3
-6 -3 -14 -9 -10 -8 -15 2 -19 10 -4 13 2 11 20 -2 18 1 23 12 19 9 -3 12 -1
9 5 -4 5 -16 7 -27 3 -18 -5 -19 -4 -7 9 8 8 21 12 29 9 16 -6 15 -4 -14 18
-11 8 -17 10 -13 3 4 -6 3 -14 -2 -18 -6 -3 -8 4 -5 17 3 13 6 29 6 36 2 15 3
15 31 1 20 -9 20 -9 5 4 -10 8 -14 18 -10 22 4 5 2 5 -5 1 -6 -3 -15 -1 -19 5
-4 8 -3 9 4 5 8 -5 10 6 7 34 -2 22 -1 40 3 40 17 0 7 75 -13 93 -11 10 -14
16 -7 12 6 -3 12 -2 12 3 0 5 11 14 24 21 20 11 23 19 21 62 -1 27 2 46 6 43
5 -3 9 6 9 19 0 14 -7 28 -16 31 -8 3 -12 11 -8 17 3 6 0 15 -7 20 -12 8 -12
11 1 19 11 7 11 10 2 10 -7 0 -11 4 -7 9 3 5 1 12 -4 16 -6 3 -8 -3 -6 -15 2
-11 0 -20 -6 -20 -8 0 -8 13 1 55 1 6 1 12 0 15 -1 3 -4 19 -6 35 -6 39 -27
85 -38 85 -4 0 -5 7 -2 16 3 8 2 12 -4 9 -11 -7 -32 29 -22 40 4 5 2 5 -4 2
-5 -3 -28 10 -50 29 -69 62 -138 90 -182 73 -15 -6 -45 -12 -68 -14 -41 -3
-113 -31 -125 -48 -4 -5 -12 -6 -18 -3 -6 4 -11 2 -11 -3 0 -17 -17 -13 -24 5
-4 10 -2 13 6 8 6 -4 8 -3 4 4 -3 6 -2 13 3 17 6 3 8 11 5 18 -3 8 5 13 18 14
13 1 24 7 26 13 2 5 7 8 12 5 13 -8 60 17 53 28 -3 6 -1 7 4 4 10 -6 25 14 27
36 1 4 6 11 11 15 6 4 10 14 10 22 -1 8 3 23 7 33 5 10 5 17 -1 17 -6 0 -13
11 -17 25 -3 14 -10 25 -15 25 -5 0 -8 11 -7 24 2 18 6 22 14 15 8 -7 15 -6
20 2 4 7 3 9 -3 6 -6 -4 -15 5 -21 18 -7 15 -8 26 -2 30 6 4 10 11 10 16 0 6
-5 7 -11 3 -8 -4 -8 0 0 15 8 15 9 25 1 34 -6 6 -16 20 -23 30 -20 29 -88 33
-139 8 -25 -11 -50 -21 -57 -21 -7 0 -27 -6 -44 -14 -53 -23 -79 -27 -73 -10
3 8 2 13 -3 9 -5 -3 -12 1 -15 7 -3 7 -3 2 0 -12 4 -19 3 -22 -5 -10 -6 8 -11
30 -11 48 0 26 -5 35 -26 42 -14 6 -26 9 -27 9 -1 -1 -19 -8 -41 -15z m315
-487 c-13 -13 -26 -3 -16 12 3 6 11 8 17 5 6 -4 6 -10 -1 -17z"/>
<path d="M1435 1701 c-6 -11 13 -26 22 -17 4 3 1 6 -6 6 -7 0 -9 5 -6 10 3 6
4 10 1 10 -3 0 -7 -4 -11 -9z"/>
<path d="M1425 1661 c-3 -6 5 -15 17 -21 21 -10 22 -10 5 3 -14 11 -15 16 -5
20 9 4 9 6 1 6 -6 1 -14 -3 -18 -8z"/>
<path d="M1460 1498 c-2 -7 -5 -24 -9 -59 0 -5 -7 -7 -13 -3 -7 4 -10 4 -6 -1
4 -4 3 -14 -4 -22 -6 -7 -8 -16 -4 -20 3 -3 6 -1 6 6 0 7 5 9 12 5 6 -4 8 -3
4 4 -3 6 1 15 10 20 9 5 16 13 16 18 0 5 5 8 11 6 7 -2 7 1 0 10 -6 7 -13 20
-16 28 -3 8 -6 12 -7 8z"/>
<path d="M1825 1081 c-6 -11 13 -26 22 -17 4 3 1 6 -6 6 -7 0 -9 5 -6 10 3 6
4 10 1 10 -3 0 -7 -4 -11 -9z"/>
<path d="M1830 1042 c0 -5 7 -9 15 -9 8 0 12 4 9 9 -3 4 -9 8 -15 8 -5 0 -9
-4 -9 -8z"/>
<path d="M1864 840 c1 -17 5 -31 10 -33 15 -4 17 40 2 52 -10 9 -13 5 -12 -19z"/>
<path d="M1835 661 c3 -5 1 -12 -3 -15 -12 -7 -9 -56 3 -57 5 0 11 4 13 10 2
6 -1 11 -6 11 -11 0 -10 25 1 36 10 11 8 24 -4 24 -5 0 -8 -4 -4 -9z"/>
<path d="M1810 519 c0 -5 5 -7 10 -4 6 3 10 8 10 11 0 2 -4 4 -10 4 -5 0 -10
-5 -10 -11z"/>
<path d="M1780 400 c-9 -6 -10 -10 -3 -10 6 0 15 5 18 10 8 12 4 12 -15 0z"/>
</g>
</svg>
