<svg xmlns="http://www.w3.org/2000/svg" viewBox="0 0 80.04 44.57"><defs><style>.cls-1{fill:#fff;}</style></defs><title>logo</title><g id="Слой_2" data-name="Слой 2"><g id="Layer_1" data-name="Layer 1"><polygon class="cls-1" points="61.46 0 52.17 0 65.89 44.57 75.41 44.57 61.46 0"/><path class="cls-1" d="M43,0,33.93,28.76a13.32,13.32,0,1,1-5.72-18.41L25,.18a22.28,22.28,0,1,0-2.76,44.39,22.2,22.2,0,0,0,14.8-5.63,26.25,26.25,0,0,0,4.74-5.33C42.65,32.5,52.17,0,52.17,0Z"/><polygon class="cls-1" points="42.99 0 33.7 0 47.42 44.57 56.94 44.57 42.99 0"/><polygon class="cls-1" points="70.77 0 75.41 15.07 80.05 0 70.77 0"/></g></g></svg>